<svg xmlns="http://www.w3.org/2000/svg" width="22.45" height="23.977" viewBox="0 0 22.45 23.977">
  <g id="Group_6306" data-name="Group 6306" transform="translate(-3831.982 -6103.421)">
    <path id="Path_7082" data-name="Path 7082" d="M3845.26,6103.421V6127.4c-1.232-.225-2.423-.438-3.612-.658-3.041-.562-6.08-1.133-9.123-1.685-.371-.067-.545-.167-.544-.6q.023-9.07.005-18.14c0-.305.04-.493.4-.558q6.3-1.146,12.605-2.315C3845.058,6103.429,3845.128,6103.431,3845.26,6103.421Zm-9.874,7.508c.1.251.157.415.226.573.5,1.165,1.019,2.323,1.491,3.5a1.118,1.118,0,0,1-.019.786c-.542,1.225-1.129,2.429-1.7,3.643-.056.119-.09.248-.15.417.448.024.843.019,1.228.074.35.051.5-.076.624-.4.375-.991.786-1.967,1.192-2.971.426,1.09.835,2.153,1.263,3.208.058.143.2.337.323.354.542.074,1.092.091,1.733.135-.112-.266-.181-.444-.261-.617-.6-1.3-1.22-2.584-1.8-3.892a1.1,1.1,0,0,1,0-.788c.479-1.115,1.008-2.209,1.515-3.312.159-.345.306-.7.487-1.108-.5.033-.91.085-1.318.08a.644.644,0,0,0-.689.511c-.373,1.01-.783,2.007-1.2,3.068-.367-1.023-.709-1.993-1.068-2.956-.055-.147-.19-.372-.292-.375C3836.47,6110.848,3835.96,6110.9,3835.387,6110.929Z" fill="#007338"/>
    <path id="Path_7083" data-name="Path 7083" d="M3959.954,6144.47v-2.226h2.209v-2.132h-1.505c-.8,0-.8,0-.67-.881h2.185v-2.1h-2.212v-.9h2.2v-2.074h-2.2v-.92h2.207v-2.1h-2.215v-.866h2.215v-2.1h-2.2v-2.241c.167-.011.339-.033.51-.033q3.621,0,7.241,0c.723,0,.916.2.916.924q0,8.369,0,16.737c0,.769-.139.91-.9.91h-7.785Zm6.518-14.244V6128.2h-3.386v2.031Zm-3.368,9.913v2.046h3.371v-2.046Zm-.016-8.961v2.016h3.395v-2.016Zm3.385,5.018v-2.006H3963.1v2.006Zm.014,1H3963.1v1.983h3.386Z" transform="translate(-114.205 -20.063)" fill="#007338"/>
  </g>
</svg>
