<svg xmlns="http://www.w3.org/2000/svg" width="352" height="150" viewBox="0 0 352 150"><g transform="translate(-884 -119.864)"><g transform="translate(754)"><g transform="translate(0 -10)"><path d="M4,0H348a4,4,0,0,1,4,4l-.148,146H0V4A4,4,0,0,1,4,0Z" transform="translate(130 129.864)" fill="#f8e4e5"/></g><path d="M228.442,149.374c-8.657,0-15.739,4.863-15.739,10.806h0c0,10.844-12.923,19.717-28.717,19.717H75.172c-20.518,0-37.306-11.526-37.306-25.613h0c0-14.087,16.787-25.613,37.306-25.613h0c4.118,0,7.487-2.313,7.487-5.14h0c0-2.827-3.369-5.14-7.487-5.14H55.651c-10.01,0-18.2-5.623-18.2-12.5h0c0-6.864,8.171-12.482,18.165-12.5H73.375c8.656,0,15.739-4.863,15.739-10.806h0c0-10.844,12.923-19.716,28.718-19.716h91.09c20.518,0,37.306,11.526,37.306,25.613h0c0,14.087-16.787,25.613-37.306,25.613h0c-4.118,0-7.486,2.313-7.486,5.14h0c0,2.827,3.369,5.14,7.486,5.14h19.52C252.256,124.384,252.256,149.374,228.442,149.374Z" transform="translate(163.039 72.456)" fill="#ef2222" fill-rule="evenodd" opacity="0.03"/><g transform="translate(-4920.231 -4329.637)"><g transform="translate(5202.851 4493.864)"><path d="M5227.811,4702.812h-23.457a5.174,5.174,0,0,1-.691-.018.926.926,0,0,1-.812-.964.905.905,0,0,1,.839-.936,7.113,7.113,0,0,1,1.27,0c.556.056.677-.182.672-.7-.021-2.715-.01-5.43-.009-8.146,0-1.618.65-2.26,2.282-2.261,1.078,0,2.157-.007,3.236,0a1.838,1.838,0,0,1,1.962,2c0,2.792.013,5.584-.011,8.377,0,.544.137.748.708.725,1.2-.05,1.061.123,1.062-1.042q.008-7.626.006-15.252c0-1.539.673-2.2,2.224-2.2h3.236a1.846,1.846,0,0,1,2.016,2q.007,7.828,0,15.657c0,.829,0,.829.806.828a2.64,2.64,0,0,1,.346,0c.487.064.623-.155.621-.625-.016-2.927-.006-5.854-.005-8.782q0-9.966,0-19.932a1.862,1.862,0,0,1,2.1-2.092c1.02,0,2.046.059,3.061-.015a2.069,2.069,0,0,1,2.336,2.309c-.037,9.4-.021,18.795-.023,28.193,0,.173.008.346,0,.52-.011.284.1.441.4.424.039,0,.078,0,.116,0,1.477-.012,1.245.15,1.246-1.2q.01-11.209,0-22.416c0-1.625.646-2.267,2.276-2.269l3,0a1.909,1.909,0,0,1,2.2,2.176q0,11.381,0,22.763c0,.173.009.347,0,.52-.019.331.145.438.455.434,1.6-.019,1.3.167,1.308-1.251.013-5.026,0-10.053.006-15.079a1.883,1.883,0,0,1,2.148-2.163c1.118,0,2.234-.006,3.351,0a1.853,1.853,0,0,1,1.979,1.993q.005,7.858,0,15.715c0,.779,0,.779.8.781.366,0,.733-.017,1.1.012a.958.958,0,0,1-.018,1.911c-.19.017-.384.007-.577.007Zm1.85-16.657c0-4.7-.008-9.4.01-14.1,0-.527-.141-.72-.683-.689-.729.043-1.463.01-2.195.011-.748,0-.75,0-.75.772v17.566c0,3.505.011,7.011-.009,10.517,0,.5.138.685.652.659a18.73,18.73,0,0,1,2.252,0c.606.042.737-.186.734-.757C5229.651,4695.477,5229.661,4690.816,5229.661,4686.155Zm5.628,2.69h0c0,3.794.008,7.588-.01,11.382,0,.5.127.69.648.665.787-.039,1.58-.036,2.368,0,.5.022.621-.171.615-.636-.022-1.733-.01-3.467-.01-5.2q0-8.725.011-17.448c0-.522-.13-.722-.679-.689a18.432,18.432,0,0,1-2.252,0c-.571-.035-.71.176-.707.722C5235.3,4681.373,5235.289,4685.109,5235.289,4688.845Zm-14.875,3.8c0-2.562-.009-5.122.008-7.683,0-.46-.114-.662-.614-.642-.827.034-1.656.022-2.484,0-.406-.011-.533.143-.532.54q.013,7.741,0,15.481c0,.444.168.563.581.552.789-.023,1.58-.037,2.367,0,.534.028.693-.149.688-.683C5220.4,4697.686,5220.415,4695.164,5220.415,4692.641Zm27.736.019c0-2.581-.008-5.161.009-7.741,0-.441-.116-.624-.587-.605-.846.032-1.694.021-2.541,0-.38-.008-.5.14-.5.51q.015,7.77,0,15.54c0,.421.176.524.556.517.809-.017,1.619-.032,2.426.009.523.026.651-.169.646-.665C5248.139,4697.7,5248.15,4695.182,5248.15,4692.66Zm-36.981,3.7h0c0-1.367-.01-2.734.006-4.1,0-.4-.124-.554-.532-.543-.847.021-1.695.02-2.542,0-.384-.008-.553.1-.551.521q.021,4.072,0,8.145c0,.371.124.517.5.509.866-.018,1.733-.021,2.6,0,.414.01.53-.157.526-.547C5211.16,4699.013,5211.169,4697.685,5211.169,4696.356Z" transform="translate(-5202.851 -4649.097)" fill="#313c47" stroke="#313c47" stroke-width="0.5"/><path d="M5218.7,4573.172a22.858,22.858,0,0,1,5.619-15.088c.647-.762,1.208-.878,1.708-.415.481.446.408.992-.211,1.72a21.217,21.217,0,0,0-.031,27.6c.606.724.675,1.289.205,1.719-.485.444-1.08.308-1.709-.43a22.937,22.937,0,0,1-5.461-12.629C5218.731,4574.827,5218.727,4574,5218.7,4573.172Z" transform="translate(-5216.867 -4550.039)" fill="#313c47" stroke="#313c47" stroke-width="0.5"/><path d="M5305.713,4493.864a22.9,22.9,0,0,1,14.014,4.75c.077.058.155.115.229.176.549.456.666.986.32,1.458a1.012,1.012,0,0,1-1.529.107,22.9,22.9,0,0,0-2.442-1.645,20.592,20.592,0,0,0-9.305-2.815,20.976,20.976,0,0,0-14.4,4.447,1.025,1.025,0,0,1-1.535-.074c-.373-.482-.255-1.033.337-1.492a22.922,22.922,0,0,1,11.886-4.8C5304.1,4493.893,5304.9,4493.9,5305.713,4493.864Z" transform="translate(-5280.662 -4493.864)" fill="#313c47" stroke="#313c47" stroke-width="0.5"/><path d="M5560.514,4573.978a21.47,21.47,0,0,1-1.228,6.7,1.219,1.219,0,0,1-.589.816.935.935,0,0,1-1.032-.1.97.97,0,0,1-.311-1.146,23.831,23.831,0,0,0,.776-2.954,20.948,20.948,0,0,0-4.665-17.793c-.122-.149-.254-.29-.365-.447a.98.98,0,0,1,.127-1.394.945.945,0,0,1,1.348.117,15.025,15.025,0,0,1,1.125,1.314A23.642,23.642,0,0,1,5560.514,4573.978Z" transform="translate(-5512.341 -4550.077)" fill="#313c47" stroke="#313c47" stroke-width="0.5"/><path d="M5335.935,4541.729a17.346,17.346,0,0,1,10.125,3.2c.095.067.192.129.281.2a.969.969,0,0,1,.229,1.381.957.957,0,0,1-1.338.221,19.612,19.612,0,0,0-2.281-1.36,15.456,15.456,0,0,0-15.769.988c-.179.113-.345.248-.526.355a.992.992,0,0,1-1.388-.216.964.964,0,0,1,.3-1.41,17.033,17.033,0,0,1,4.972-2.531A16.486,16.486,0,0,1,5335.935,4541.729Z" transform="translate(-5310.922 -4536.183)" fill="#313c47" stroke="#313c47" stroke-width="0.5"/><path d="M5266.579,4603.321a17.471,17.471,0,0,1,3.888-11.049,4.532,4.532,0,0,1,.5-.559.949.949,0,0,1,1.265-.056.97.97,0,0,1,.227,1.251,5.029,5.029,0,0,1-.45.6,15.714,15.714,0,0,0-1.91,16.568,1.11,1.11,0,0,1-.021,1.2.931.931,0,0,1-.967.376,1.1,1.1,0,0,1-.812-.745A17.287,17.287,0,0,1,5266.579,4603.321Z" transform="translate(-5259.199 -4580.144)" fill="#313c47" stroke="#313c47" stroke-width="0.5"/><path d="M5525.038,4603.326a16.022,16.022,0,0,1-.866,5.442c-.253.775-.712,1.08-1.3.889-.616-.2-.834-.728-.569-1.518a14.829,14.829,0,0,0,.778-4.764,15.412,15.412,0,0,0-2.279-8.234,19.068,19.068,0,0,0-1.407-1.972,1.051,1.051,0,0,1-.033-1.542c.464-.409,1.034-.327,1.547.282a17.429,17.429,0,0,1,4.015,9.172A16.121,16.121,0,0,1,5525.038,4603.326Z" transform="translate(-5482.432 -4580.084)" fill="#313c47" stroke="#313c47" stroke-width="0.5"/><path d="M5314.355,4632.315a11.7,11.7,0,0,1,2.422-6.369,2.481,2.481,0,0,1,.38-.433.9.9,0,0,1,1.215-.057.945.945,0,0,1,.309,1.188,1.826,1.826,0,0,1-.244.39,10.384,10.384,0,0,0-.941,11.08c.286.628.675,1.21,1.021,1.81a1.014,1.014,0,0,1-.207,1.478,1,1,0,0,1-1.435-.4A14.5,14.5,0,0,1,5314.355,4632.315Z" transform="translate(-5301.444 -4610.034)" fill="#313c47" stroke="#313c47" stroke-width="0.5"/><path d="M5366.344,4589.719a11.736,11.736,0,0,1,6.268,1.712,1.009,1.009,0,0,1,.565,1.294.992.992,0,0,1-1.536.42,10.4,10.4,0,0,0-10.2-.164c-.86.475-1.412.438-1.756-.142s-.1-1.1.767-1.576A11.767,11.767,0,0,1,5366.344,4589.719Z" transform="translate(-5341.39 -4578.619)" fill="#313c47" stroke="#313c47" stroke-width="0.5"/><path d="M5489.271,4632.606c0,.193.013.387,0,.578a.96.96,0,0,1-1.917.019,18.075,18.075,0,0,0-.291-2.346,10.184,10.184,0,0,0-1.842-3.883,1.157,1.157,0,0,1-.311-1.061.948.948,0,0,1,.765-.7.984.984,0,0,1,1,.43,11.311,11.311,0,0,1,2.068,3.905A10.023,10.023,0,0,1,5489.271,4632.606Z" transform="translate(-5452.217 -4609.982)" fill="#313c47" stroke="#313c47" stroke-width="0.5"/></g></g></g><g transform="translate(757 3)"><g transform="translate(268.98 157.647)"><line x2="10.484" transform="translate(0 4.928)" stroke-width="3" stroke="#313c47" stroke-linecap="round" stroke-linejoin="round" fill="none"/><line y2="9.855" transform="translate(5.462)" stroke-width="3" stroke="#313c47" stroke-linecap="round" stroke-linejoin="round" fill="none"/></g><path d="M170.359,244.083a4.724,4.724,0,1,1-4.724-4.724A4.723,4.723,0,0,1,170.359,244.083Z" transform="translate(174.498 -64.428)" fill="none" stroke="#313c47" stroke-linecap="round" stroke-linejoin="round" stroke-width="3"/></g></g></svg>