<svg xmlns="http://www.w3.org/2000/svg" width="352" height="150" viewBox="0 0 352 150"><g transform="translate(-507 -119.864)"><g transform="translate(377)"><g transform="translate(0 -10)"><path d="M4,0H348a4,4,0,0,1,4,4l-.148,146H0V4A4,4,0,0,1,4,0Z" transform="translate(130 129.864)" fill="#faf5e4"/></g><path d="M228.442,149.374c-8.657,0-15.739,4.863-15.739,10.806h0c0,10.844-12.923,19.717-28.717,19.717H75.172c-20.518,0-37.306-11.526-37.306-25.613h0c0-14.087,16.787-25.613,37.306-25.613h0c4.118,0,7.487-2.313,7.487-5.14h0c0-2.827-3.369-5.14-7.487-5.14H55.651c-10.01,0-18.2-5.623-18.2-12.5h0c0-6.864,8.171-12.482,18.165-12.5H73.375c8.656,0,15.739-4.863,15.739-10.806h0c0-10.844,12.923-19.716,28.718-19.716h91.09c20.518,0,37.306,11.526,37.306,25.613h0c0,14.087-16.787,25.613-37.306,25.613h0c-4.118,0-7.486,2.313-7.486,5.14h0c0,2.827,3.369,5.14,7.486,5.14h19.52C252.256,124.384,252.256,149.374,228.442,149.374Z" transform="translate(163.039 72.456)" fill="#fecc2f" fill-rule="evenodd" opacity="0.09"/><g transform="translate(-4626.875 -4260.796)"><g transform="translate(4901.546 4419.977)"><path d="M4897.874,4471.787c.769-2.126,1.955-3.89,3.972-4.595,0-10.49-.019-20.8.009-31.11.011-3.919,2.739-6.48,6.852-6.49,8.17-.018,16.34,0,24.51,0h1.89V4428c0-2.708-.021-5.416.012-8.124a3.2,3.2,0,0,1,2.725-3.391,14.088,14.088,0,0,1,4.294-.027,3.335,3.335,0,0,1,2.842,3.612c.023,2.661.006,5.323.006,7.984,0,.457,0,.914,0,1.536,1.807,0,3.474-.012,5.141,0,4.171.034,6.8,2.5,6.831,6.665.066,9.524.078,19.049-.038,28.572-.018,1.513.088,2.4,1.511,3.294a5.536,5.536,0,0,1,2.4,5.873,6.1,6.1,0,0,1-4.431,5.087c-.258.086-.514.184-.771.275H4903.2a7.142,7.142,0,0,1-5.327-5.047Zm37.161-40.208c-.519-.028-.973-.074-1.426-.074q-12.335-.007-24.67,0c-3.461,0-5.136,1.7-5.137,5.182q0,13.668,0,27.334c0,3.844,1.592,5.433,5.452,5.433q17.591,0,35.184,0c1.962,0,3.925.033,5.887-.009,2.759-.06,4.668-1.752,4.681-4.358q.075-14.578,0-29.156a4,4,0,0,0-3.383-4.213,58.119,58.119,0,0,0-6.547-.055v4.543a30.9,30.9,0,0,1,3.7.048c.482.06.9.653,1.343,1-.437.3-.854.813-1.316.859-1.231.122-2.481.042-3.746.042v3.352a31.52,31.52,0,0,1,3.671.045c.5.059,1.261.559,1.335.963.158.853-.6.977-1.32.966-1.238-.02-2.476-.006-3.756-.006,0,2.619.038,5-.024,7.382a4.009,4.009,0,0,1-.538,1.956,34.685,34.685,0,0,1-2.494,3.376,2.244,2.244,0,0,1-3.794-.014,18.659,18.659,0,0,1-2.081-2.809,6.537,6.537,0,0,1-.906-2.812c-.1-3.6-.042-7.194-.042-10.792v-1.538c-.548-.029-.914-.065-1.279-.066-1.869-.006-3.741.048-5.6-.044-.413-.021-.8-.551-1.2-.846a5.38,5.38,0,0,1,1.208-1.028,3.717,3.717,0,0,1,1.387-.038h5.415Zm-5.621,45.807h7.99c5.7,0,11.4.014,17.1-.007a4.386,4.386,0,0,0,4.391-3.418,4.462,4.462,0,0,0-2.1-4.67,1.163,1.163,0,0,0-1.7.207,5.764,5.764,0,0,1-4.387,1.839c-14.2,0-28.409.033-42.613-.062a7.922,7.922,0,0,1-3.849-1.354c-1.556-.968-2.342-1.019-3.482.486a4.039,4.039,0,0,0-.491,4.475,4.307,4.307,0,0,0,4.186,2.509Q4916.938,4477.377,4929.414,4477.386Zm9.554-30.618v-23.086h-1.834v23.086Zm3.955,0v-23.133h-1.808v23.133Zm-5.718,2.085c-.874,3.06,1.464,4.484,2.856,6.64,1.369-2.229,3.781-3.685,2.782-6.64Zm6.25-27.323c-.512-1.216-.723-2.752-1.321-2.922a7.888,7.888,0,0,0-4.293.068c-.566.176-.7,1.731-1.105,2.854Z" transform="translate(-4897.874 -4416.305)" fill="#313c47" stroke="#313c47" stroke-width="1"/><path d="M5065.09,4539.013" transform="translate(-5018.001 -4504.458)" fill="#313c47" stroke="#313c47" stroke-width="1"/><path d="M4956.146,4543.2q-8.338,0-16.675,0c-2.777,0-4.163-1.346-4.181-4.085q-.031-5.254,0-10.509a3.581,3.581,0,0,1,3.92-3.909c5.838-.016,11.676-.005,17.515-.006.754,0,1.656-.088,1.656.986s-.9.992-1.653.992q-8.477,0-16.954,0c-2.159,0-2.591.439-2.593,2.646,0,3.176-.01,6.352,0,9.528.008,1.9.521,2.394,2.422,2.395q16.534,0,33.068,0c1.89,0,2.435-.528,2.442-2.382.011-3.27.019-6.539-.011-9.808,0-.593-.285-1.188-.261-1.776.015-.388.265-.979.555-1.085a1.226,1.226,0,0,1,1.139.417,5.525,5.525,0,0,1,.487,2.147q.07,5.183.012,10.368c-.032,2.733-1.453,4.078-4.217,4.081Q4964.483,4543.207,4956.146,4543.2Z" transform="translate(-4924.743 -4494.164)" fill="#313c47" stroke="#313c47" stroke-width="1"/><path d="M4947.038,4507.768q-4.973,0-9.946,0c-.742,0-1.638.138-1.613-1,.022-.987.813-.971,1.539-.971q10.016,0,20.032,0c.755,0,1.5.068,1.482,1.032-.021,1-.829.944-1.547.944Q4952.011,4507.763,4947.038,4507.768Z" transform="translate(-4924.888 -4480.593)" fill="#313c47" stroke="#313c47" stroke-width="1"/><path d="M4942.332,4488.894c-1.822,0-3.645-.009-5.466,0-.722.005-1.461-.121-1.288-1a1.624,1.624,0,0,1,1.242-.918q5.6-.11,11.21,0c.441.009.87.6,1.3.923-.466.329-.917.912-1.4.941C4946.073,4488.959,4944.2,4488.894,4942.332,4488.894Z" transform="translate(-4924.942 -4467.041)" fill="#313c47" stroke="#313c47" stroke-width="1"/><path d="M5024.654,4619.154q4.623,0,9.246,0c.7,0,1.554-.1,1.588.9.037,1.077-.852,1.055-1.608,1.055-6.21.006-12.421.027-18.632-.041-.525-.005-1.443-.584-1.485-.973-.1-.931.775-.943,1.506-.942Q5019.96,4619.162,5024.654,4619.154Z" transform="translate(-4981.123 -4562.03)" fill="#313c47" stroke="#313c47" stroke-width="1"/><path d="M4934.914,4619.116c1.674,0,3.352-.064,5.018.042.455.029.875.577,1.31.887-.418.341-.83.967-1.256.977q-5.017.122-10.04,0c-.416-.011-.815-.649-1.223-1,.437-.3.857-.838,1.312-.868C4931.656,4619.052,4933.287,4619.116,4934.914,4619.116Z" transform="translate(-4920.036 -4561.99)" fill="#313c47" stroke="#313c47" stroke-width="1"/><path d="M4984.941,4620.3c-.7.469-1.151.987-1.44.908-.4-.107-.678-.663-1.009-1.026.359-.276.705-.745,1.083-.772C4983.913,4619.384,4984.286,4619.846,4984.941,4620.3Z" transform="translate(-4958.664 -4562.213)" fill="#313c47" stroke="#313c47" stroke-width="1"/><path d="M4999.834,4620.138c-.71.559-1.107,1.1-1.417,1.058-.4-.059-.813-.544-1.04-.947-.064-.116.49-.825.771-.832C4998.583,4619.405,4999.026,4619.765,4999.834,4620.138Z" transform="translate(-4969.352 -4562.22)" fill="#313c47" stroke="#313c47" stroke-width="1"/></g></g></g><g transform="translate(383 -3)"><g transform="translate(258.98 161.647)"><line x2="10.484" transform="translate(0 4.928)" stroke-width="3" stroke="#313c47" stroke-linecap="round" stroke-linejoin="round" fill="none"/><line y2="9.855" transform="translate(5.462)" stroke-width="3" stroke="#313c47" stroke-linecap="round" stroke-linejoin="round" fill="none"/></g><path d="M170.359,244.083a4.724,4.724,0,1,1-4.724-4.724A4.723,4.723,0,0,1,170.359,244.083Z" transform="translate(175.498 -57.428)" fill="none" stroke="#313c47" stroke-linecap="round" stroke-linejoin="round" stroke-width="3"/></g></g></svg>