<svg xmlns="http://www.w3.org/2000/svg" width="352" height="150" viewBox="0 0 352 150"><g transform="translate(-130 -119.864)"><g transform="translate(0 -10)"><path d="M4,0H348a4,4,0,0,1,4,4l-.148,146H0V4A4,4,0,0,1,4,0Z" transform="translate(130 129.864)" fill="#e2f0f5"/><path d="M228.442,149.374c-8.657,0-15.739,4.863-15.739,10.806h0c0,10.844-12.923,19.717-28.717,19.717H75.172c-20.518,0-37.306-11.526-37.306-25.613h0c0-14.087,16.787-25.613,37.306-25.613h0c4.118,0,7.487-2.313,7.487-5.14h0c0-2.827-3.369-5.14-7.487-5.14H55.651c-10.01,0-18.2-5.623-18.2-12.5h0c0-6.864,8.171-12.482,18.165-12.5H73.375c8.656,0,15.739-4.863,15.739-10.806h0c0-10.844,12.923-19.716,28.718-19.716h91.09c20.518,0,37.306,11.526,37.306,25.613h0c0,14.087-16.787,25.613-37.306,25.613h0c-4.118,0-7.486,2.313-7.486,5.14h0c0,2.827,3.369,5.14,7.486,5.14h19.52C252.256,124.384,252.256,149.374,228.442,149.374Z" transform="translate(163.039 82.456)" fill="#1899cc" fill-rule="evenodd" opacity="0.05"/></g><g transform="translate(-5.066 -0.978)"><g transform="translate(288.621 168.192)"><g transform="translate(0 0)"><g transform="translate(0)"><path d="M295,117.512a.822.822,0,0,0-.821.821v2.132a.822.822,0,0,0,.821.821h.513a6.675,6.675,0,0,0,.542,1.305l-.363.363a.818.818,0,0,0,0,1.159l1.5,1.5a.818.818,0,0,0,1.158,0h0l.362-.363a6.727,6.727,0,0,0,1.307.542v.513a.82.82,0,0,0,.821.819h2.129a.819.819,0,0,0,.819-.819V125.8a6.51,6.51,0,0,0,1.308-.542l.362.363a.845.845,0,0,0,1.16,0l1.5-1.5a.821.821,0,0,0,0-1.16l-.363-.362a6.726,6.726,0,0,0,.542-1.307h.513a.822.822,0,0,0,.821-.821v-2.132a.821.821,0,0,0-.821-.821H308.3a6.686,6.686,0,0,0-.542-1.307l.363-.362a.821.821,0,0,0,0-1.16l-1.5-1.5a.818.818,0,0,0-1.159,0h0l-.362.363a6.51,6.51,0,0,0-1.308-.542v-.513a.82.82,0,0,0-.819-.821h-2.124a.822.822,0,0,0-.821.821V113a6.46,6.46,0,0,0-1.307.542l-.363-.363a.845.845,0,0,0-1.16,0l-1.5,1.5a.82.82,0,0,0,0,1.16l.363.362a6.58,6.58,0,0,0-.54,1.307Zm.821,1.64h.339a.819.819,0,0,0,.808-.671,4.942,4.942,0,0,1,.8-1.933.821.821,0,0,0-.1-1.044l-.242-.241.343-.343.241.239a.819.819,0,0,0,1.045.1,5,5,0,0,1,1.933-.8.819.819,0,0,0,.672-.806v-.339h.484v.339a.817.817,0,0,0,.671.806,4.989,4.989,0,0,1,1.933.8.819.819,0,0,0,1.045-.1l.241-.239.343.343-.241.241a.819.819,0,0,0-.1,1.044,4.946,4.946,0,0,1,.8,1.933.818.818,0,0,0,.806.671h.341v.492h-.341a.82.82,0,0,0-.806.673,4.949,4.949,0,0,1-.8,1.932.822.822,0,0,0,.1,1.045l.241.241-.343.343-.241-.241a.819.819,0,0,0-1.045-.1,4.941,4.941,0,0,1-1.933.8.82.82,0,0,0-.671.806v.341h-.484v-.341a.821.821,0,0,0-.672-.806,4.953,4.953,0,0,1-1.933-.8.819.819,0,0,0-1.045.1l-.241.241-.343-.343.242-.241a.823.823,0,0,0,.1-1.045,4.945,4.945,0,0,1-.8-1.932.82.82,0,0,0-.808-.673h-.339Z" transform="translate(-281.117 -99.731)" fill="#313c47"/><path d="M300.521,122.02a4.008,4.008,0,1,0-4.008-4.008A4.008,4.008,0,0,0,300.521,122.02Zm0-6.376a2.368,2.368,0,1,1-2.368,2.368A2.367,2.367,0,0,1,300.521,115.644Z" transform="translate(-279.732 -98.345)" fill="#313c47"/><path d="M292.889,123.147l.014.009a.933.933,0,0,0,.265.177c.02.009.042.016.061.023a.935.935,0,0,0,.314.061.9.9,0,0,0,.315-.063.075.075,0,0,0,.04-.007l.077-.047c.027-.014.056-.022.081-.038L296.4,121.7a.928.928,0,1,0-.948-1.595c-.025.014-.052.032-.077.05l-.741.5a11.577,11.577,0,0,1,11.407-9.728c5.534,0,9.4,2.818,11.177,8.151a.929.929,0,0,0,1.762-.586c-2.027-6.074-6.621-9.42-12.939-9.42a13.448,13.448,0,0,0-13.263,11.342l-.921-.919a.927.927,0,0,0-1.31,1.312Z" transform="translate(-285.255 -102.299)" fill="#313c47" stroke="#313c47" stroke-width="1"/><path d="M317.753,116.129a1.089,1.089,0,0,0-.321-.108c-.02,0-.04-.014-.06-.014a1.064,1.064,0,0,0-.186.005.21.21,0,0,0-.033.007.276.276,0,0,0-.072.022.822.822,0,0,0-.24.1.445.445,0,0,0-.052.02l-2.341,1.562a.927.927,0,1,0,.975,1.577l.052-.034.742-.494a11.575,11.575,0,0,1-11.407,9.726c-6.2,0-9.54-2.425-11.166-8.112a.928.928,0,0,0-1.8.441l.02.067c1.842,6.452,5.958,9.459,12.948,9.459a13.448,13.448,0,0,0,13.262-11.344l.921.921a.928.928,0,0,0,1.335-1.29l-.023-.022-2.343-2.342c-.025-.025-.058-.036-.085-.059A1.218,1.218,0,0,0,317.753,116.129Z" transform="translate(-284.026 -96.739)" fill="#313c47" stroke="#313c47" stroke-width="1"/><path d="M292.22,165.224h20.648a.984.984,0,0,0,.984-.984V151.458h8.976a2.96,2.96,0,0,0,2.944-2.755l.8-11.995h1.815a2.951,2.951,0,0,0,2.952-2.95c0-.1-.006-.2-.015-.3l-.755-7.287c-.031-11-9.723-19.941-21.632-19.941a21.692,21.692,0,0,0-16.005,6.735,17.81,17.81,0,0,0-4.719,13.668v.042l1.985,15.653a132.126,132.126,0,0,1,1.039,16.486v5.428A.985.985,0,0,0,292.22,165.224Zm-2.054-38.777a15.86,15.86,0,0,1,4.217-12.157,19.717,19.717,0,0,1,14.553-6.1c10.842,0,19.666,8.088,19.666,18.026a.849.849,0,0,0,0,.1l.759,7.335a.98.98,0,0,1-.879,1.076.937.937,0,0,1-.1.006h-2.73a.983.983,0,0,0-.984.919l-.86,12.912a.986.986,0,0,1-.984.919h-9.956a.982.982,0,0,0-.982.982v12.789H293.2v-4.444a133.535,133.535,0,0,0-1.055-16.735Z" transform="translate(-288.147 -106.225)" fill="#313c47" stroke="#313c47" stroke-width="1"/></g></g></g></g><g transform="translate(271.98 163.647)"><line x2="10.484" transform="translate(0 4.928)" stroke-width="3" stroke="#313c47" stroke-linecap="round" stroke-linejoin="round" fill="none"/><line y2="9.855" transform="translate(5.462)" stroke-width="3" stroke="#313c47" stroke-linecap="round" stroke-linejoin="round" fill="none"/></g><path d="M170.359,244.083a4.724,4.724,0,1,1-4.724-4.724A4.723,4.723,0,0,1,170.359,244.083Z" transform="translate(172.498 -62.428)" fill="none" stroke="#313c47" stroke-linecap="round" stroke-linejoin="round" stroke-width="3"/></g></svg>