<svg xmlns="http://www.w3.org/2000/svg" width="352" height="150" viewBox="0 0 352 150"><g transform="translate(-130 -119.864)"><g transform="translate(0 -10)"><path d="M4,0H348a4,4,0,0,1,4,4l-.148,146H0V4A4,4,0,0,1,4,0Z" transform="translate(130 129.864)" fill="#e2f0f5"/></g><path d="M228.442,149.374c-8.657,0-15.739,4.863-15.739,10.806h0c0,10.844-12.923,19.717-28.717,19.717H75.172c-20.518,0-37.306-11.526-37.306-25.613h0c0-14.087,16.787-25.613,37.306-25.613h0c4.118,0,7.487-2.313,7.487-5.14h0c0-2.827-3.369-5.14-7.487-5.14H55.651c-10.01,0-18.2-5.623-18.2-12.5h0c0-6.864,8.171-12.482,18.165-12.5H73.375c8.656,0,15.739-4.863,15.739-10.806h0c0-10.844,12.923-19.716,28.718-19.716h91.09c20.518,0,37.306,11.526,37.306,25.613h0c0,14.087-16.787,25.613-37.306,25.613h0c-4.118,0-7.486,2.313-7.486,5.14h0c0,2.827,3.369,5.14,7.486,5.14h19.52C252.256,124.384,252.256,149.374,228.442,149.374Z" transform="translate(163.039 72.456)" fill="#1999cc" fill-rule="evenodd" opacity="0.05"/><g transform="translate(-7.666 -4.529)"><g transform="translate(277.646 163.177)"><g transform="translate(-3 2)"><line x2="10.484" transform="translate(0 4.928)" stroke-width="3" stroke="#313c47" stroke-linecap="round" stroke-linejoin="round" fill="none"/><line y2="9.855" transform="translate(5.462)" stroke-width="3" stroke="#313c47" stroke-linecap="round" stroke-linejoin="round" fill="none"/></g><g transform="translate(-6192.234 -4628.113)"><g transform="translate(6200.808 4638.637)"><path d="M6200.834,4775.471c0-4.363.072-8.729-.023-13.089a6.209,6.209,0,0,1,6.109-6.089c5.5.1,11.007.026,16.51.026.157,0,.315-.007.472.005a1.138,1.138,0,0,1,1.074,1.119,1.115,1.115,0,0,1-.957,1.161,4.239,4.239,0,0,1-.705.035H6206.98a5.364,5.364,0,0,0-1.29.1,3.3,3.3,0,0,0-2.55,3.557q-.008,8.787,0,17.572,0,4.3,0,8.609c0,2.563,1.276,3.83,3.848,3.83q12.383,0,24.767.012a.733.733,0,0,0,.811-.53,4.717,4.717,0,0,1,5.019-2.9,4.969,4.969,0,0,1,3.864,4.172A4.813,4.813,0,0,1,6237.8,4798a4.626,4.626,0,0,1-5.189-2.738.887.887,0,0,0-1-.62c-8.235.015-16.472-.022-24.707.026a6.2,6.2,0,0,1-6.1-6.1C6200.907,4784.2,6200.834,4779.834,6200.834,4775.471Zm36,15.677a2.33,2.33,0,0,0-.047,4.659,2.33,2.33,0,1,0,.047-4.659Z" transform="translate(-6200.808 -4742.38)" fill="#313c47" stroke="#313c47" stroke-width="1"/><path d="M6423,4638.641c1.709,0,3.42-.009,5.13,0a10.641,10.641,0,0,1,10.465,11.423,10.883,10.883,0,0,1-9.013,9.371,15.343,15.343,0,0,1-1.881.107c-3.5,0-7,0-10.5-.008a1.75,1.75,0,0,0-.991.281c-1.524.969-3.062,1.916-4.588,2.882a1.23,1.23,0,0,1-2.036-1.148c.01-1.769,0-3.538.01-5.307a1.684,1.684,0,0,0-.309-1.031c-4.838-7.063-.233-14.944,6.527-16.4a9.366,9.366,0,0,1,1.993-.175C6419.536,4638.644,6421.266,4638.641,6423,4638.641Zm-11.067,21.114c1.226-.765,2.358-1.458,3.474-2.174a2.336,2.336,0,0,1,1.327-.384c3.891.012,7.781.039,11.671,0a7.948,7.948,0,0,0,7.768-9.615,7.855,7.855,0,0,0-8.091-6.628q-5.129-.015-10.257,0a8.879,8.879,0,0,0-2.613.377,8.107,8.107,0,0,0-3.773,12.89,2.128,2.128,0,0,1,.5,1.451C6411.912,4656.982,6411.929,4658.3,6411.929,4659.755Z" transform="translate(-6382.869 -4638.637)" fill="#313c47" stroke="#313c47" stroke-width="1"/><path d="M6303.214,4812.508a6.973,6.973,0,1,1-6.928-6.968A7.157,7.157,0,0,1,6303.214,4812.508Zm-6.963-4.629a4.638,4.638,0,1,0,4.65,4.624A4.439,4.439,0,0,0,6296.25,4807.879Z" transform="translate(-6278.809 -4785.806)" fill="#313c47" stroke="#313c47" stroke-width="1"/><path d="M6259.9,4944.695a10.819,10.819,0,0,1,6.97-10.652,10.156,10.156,0,0,1,10.909,2.625,10.38,10.38,0,0,1,3.012,7.561c-.011.628.009,1.258,0,1.886a1.139,1.139,0,0,1-1.157,1.216,1.152,1.152,0,0,1-1.171-1.212c-.021-.766,0-1.533-.007-2.3a8.127,8.127,0,0,0-16.142-1.323,20.127,20.127,0,0,0-.1,3.178,4.129,4.129,0,0,1-.047.763,1.11,1.11,0,0,1-1.209.891,1.094,1.094,0,0,1-1.044-1.012C6259.869,4945.729,6259.9,4945.138,6259.9,4944.695Z" transform="translate(-6252.894 -4898.566)" fill="#313c47" stroke="#313c47" stroke-width="1"/><path d="M6562.651,4834.589q0,5.747,0,11.494a6.026,6.026,0,0,1-5.923,5.947c-.354,0-.709.017-1.061-.007a1.165,1.165,0,1,1,.041-2.33,10.785,10.785,0,0,0,2.112-.113,3.187,3.187,0,0,0,2.466-2.817c.034-.351.034-.706.034-1.06q0-11.317,0-22.635a2.871,2.871,0,0,1,.063-.877,1.141,1.141,0,0,1,1.211-.822,1.13,1.13,0,0,1,1.046,1.02,6.215,6.215,0,0,1,.01.647Q6562.652,4828.813,6562.651,4834.589Z" transform="translate(-6512.695 -4799.759)" fill="#313c47" stroke="#313c47" stroke-width="1"/><path d="M6322.613,4709.694c-1.139,0-2.279.007-3.419,0a1.156,1.156,0,1,1-.026-2.3q3.449-.015,6.9,0a1.154,1.154,0,1,1-.033,2.3C6324.893,4709.7,6323.753,4709.694,6322.613,4709.694Z" transform="translate(-6304.059 -4699.257)" fill="#313c47" stroke="#313c47" stroke-width="1"/><path d="M6202.79,4705.992a1.73,1.73,0,1,1,1.716-1.714A1.948,1.948,0,0,1,6202.79,4705.992Zm-.028-2.291c-.267.108-.525.276-.523.56a.534.534,0,1,0,1.067-.025C6203.294,4703.96,6203.042,4703.786,6202.762,4703.7Z" transform="translate(-6201.017 -4694.978)" fill="#313c47" stroke="#313c47" stroke-width="1"/><path d="M6241.943,4702.541a1.73,1.73,0,1,1-1.739,1.766A1.982,1.982,0,0,1,6241.943,4702.541Zm.583,1.706c-.134-.234-.271-.513-.573-.51a.555.555,0,0,0-.544.517.547.547,0,0,0,.564.547C6242.26,4704.793,6242.418,4704.529,6242.526,4704.247Z" transform="translate(-6235.545 -4694.985)" fill="#313c47" stroke="#313c47" stroke-width="1"/><path d="M6281.226,4706a1.73,1.73,0,1,1,1.767-1.734A1.983,1.983,0,0,1,6281.226,4706Zm.079-1.161c.206-.137.5-.282.489-.565a.549.549,0,0,0-.58-.531.537.537,0,0,0-.5.551C6280.736,4704.561,6280.972,4704.753,6281.3,4704.835Z" transform="translate(-6270.202 -4694.981)" fill="#313c47" stroke="#313c47" stroke-width="1"/></g></g></g><g transform="translate(341.076 173.461)"><path d="M170.359,244.083a4.724,4.724,0,1,1-4.724-4.724A4.723,4.723,0,0,1,170.359,244.083Z" transform="translate(-153.911 -239.359)" fill="none" stroke="#313c47" stroke-linecap="round" stroke-linejoin="round" stroke-width="3"/></g></g></g></svg>