<svg xmlns="http://www.w3.org/2000/svg" width="352" height="150" viewBox="0 0 352 150"><g transform="translate(-130 -119.864)"><g transform="translate(0 -10)"><path d="M4,0H348a4,4,0,0,1,4,4l-.148,146H0V4A4,4,0,0,1,4,0Z" transform="translate(130 129.864)" fill="#faf5e4"/></g><path d="M228.442,149.374c-8.657,0-15.739,4.863-15.739,10.806h0c0,10.844-12.923,19.717-28.717,19.717H75.172c-20.518,0-37.306-11.526-37.306-25.613h0c0-14.087,16.787-25.613,37.306-25.613h0c4.118,0,7.487-2.313,7.487-5.14h0c0-2.827-3.369-5.14-7.487-5.14H55.651c-10.01,0-18.2-5.623-18.2-12.5h0c0-6.864,8.171-12.482,18.165-12.5H73.375c8.656,0,15.739-4.863,15.739-10.806h0c0-10.844,12.923-19.716,28.718-19.716h91.09c20.518,0,37.306,11.526,37.306,25.613h0c0,14.087-16.787,25.613-37.306,25.613h0c-4.118,0-7.486,2.313-7.486,5.14h0c0,2.827,3.369,5.14,7.486,5.14h19.52C252.256,124.384,252.256,149.374,228.442,149.374Z" transform="translate(163.039 72.456)" fill="#fecc2f" fill-rule="evenodd" opacity="0.09"/><g transform="translate(-6.666 -4.529)"><g transform="translate(277.646 163.177)"><g transform="translate(0 0)"><line x2="10.484" transform="translate(0 4.928)" stroke-width="3" stroke="#313c47" stroke-linecap="round" stroke-linejoin="round" fill="none"/><line y2="9.855" transform="translate(5.462)" stroke-width="3" stroke="#313c47" stroke-linecap="round" stroke-linejoin="round" fill="none"/></g><g transform="translate(-6738.629 -4756.638)"><g transform="translate(6748.936 4770.472)"><path d="M6748.936,4771.228a1.952,1.952,0,0,1,2.417-.582c7.191,2.288,14.4,4.505,21.6,6.782a3.915,3.915,0,0,0,2.514.017c7.026-2.229,14.066-4.416,21.1-6.612,1.93-.6,2.518-.185,2.52,1.81q.007,11.511,0,23.024a7.98,7.98,0,0,1-.068,1.047,1.194,1.194,0,0,1-1.18,1.044,1.259,1.259,0,0,1-1.333-.851,3.549,3.549,0,0,1-.151-1.424q-.007-10.131,0-20.262v-1.468c-3.134.971-6.163,1.9-9.188,2.848-3.539,1.1-7.067,2.246-10.617,3.311-.871.261-1.232.6-1.218,1.589.065,4.56.027,9.122.03,13.683,0,.77-.016,1.528-.925,1.816-1.026.326-1.789-.408-1.792-1.767-.012-4.429-.074-8.86.035-13.287.036-1.441-.426-1.961-1.785-2.368-6.388-1.906-12.733-3.953-19.1-5.951a1.793,1.793,0,0,0-.157,1.182c-.008,11.1,0,22.191-.027,33.287a1.374,1.374,0,0,0,1.182,1.613c5.058,1.508,10.088,3.113,15.123,4.7a2.919,2.919,0,0,1,1.3.578,1.269,1.269,0,0,1,.218,1.676,1.371,1.371,0,0,1-1.73.538c-3.37-1.066-6.746-2.11-10.119-3.167-2.372-.743-4.734-1.517-7.116-2.227a2.342,2.342,0,0,1-1.533-1.089Z" transform="translate(-6748.936 -4770.472)" fill="#313c47" stroke="#313c47" stroke-width="1"/><path d="M6848,4883.122c-5.933,1.775-11.658,3.477-17.372,5.21a4.105,4.105,0,0,1-2.547-.006c-2.7-.855-5.431-1.637-8.14-2.476-.758-.235-1.153-.271-1.133.769.063,3.287.042,6.577.009,9.866-.008.743.165,1.052.975,1.178a61.434,61.434,0,0,0,19.115,0c.727-.115.949-.338.936-1.057-.042-2.192-.025-4.385-.011-6.578.005-1.018.418-1.725,1.562-1.642.876.063,1.162.694,1.165,1.471.01,2.85,0,5.7.006,8.551a1.5,1.5,0,0,1-1.417,1.595A63.7,63.7,0,0,1,6817.5,4900c-1.121-.209-1.409-.979-1.4-2.029.027-4.034-.008-8.069.026-12.1.007-.8-.126-1.222-1.035-1.444-1.946-.475-3.836-1.171-5.768-1.709-.786-.219-1.283-.632-1.268-1.43.013-.729.479-1.127,1.21-1.342q9.79-2.893,19.561-5.851a2.033,2.033,0,0,1,1.265.078c6.354,1.9,12.707,3.8,19.071,5.66a1.789,1.789,0,0,1,1.514,2.067c-.077,1.443.022,2.9-.03,4.34a7.356,7.356,0,0,0,.746,3.928,1.392,1.392,0,0,1-.072,1.712,1.214,1.214,0,0,1-1.644.333c-.268-.156-.486-.031-.742.03-1.379.329-2.33-.538-1.728-1.75C6848.379,4888.128,6847.818,4885.686,6848,4883.122Zm-33.841-1.8c5.173,1.552,9.957,2.99,14.742,4.421a2.151,2.151,0,0,0,1.28-.125c2.667-.817,5.341-1.606,8.013-2.4,2.012-.6,4.022-1.19,6.378-1.887-5.13-1.544-9.874-2.972-14.617-4.4a2.167,2.167,0,0,0-1.287.038C6823.964,4878.378,6819.257,4879.789,6814.162,4881.318Z" transform="translate(-6792.412 -4846.614)" fill="#313c47" stroke="#313c47" stroke-width="1"/><path d="M6781.287,4813.987c1.7.521,3.581,1.09,5.455,1.668.75.231,1.514.437,2.236.738a1.253,1.253,0,0,1,.784,1.7,1.235,1.235,0,0,1-1.668.855c-2.505-.759-5.007-1.535-7.493-2.352a1.269,1.269,0,0,1-.921-1.543C6779.829,4814.3,6780.339,4813.964,6781.287,4813.987Z" transform="translate(-6771.52 -4802.471)" fill="#313c47" stroke="#313c47" stroke-width="1"/><path d="M6878.028,4813.47a1.466,1.466,0,0,1,1.344,1.2,1.3,1.3,0,0,1-1.035,1.585c-2.034.648-4.079,1.269-6.121,1.9a12.321,12.321,0,0,1-1.5.46,1.258,1.258,0,0,1-1.443-.884,1.091,1.091,0,0,1,.448-1.5C6872.471,4815.262,6875.255,4814.383,6878.028,4813.47Z" transform="translate(-6837.346 -4802.092)" fill="#313c47" stroke="#313c47" stroke-width="1"/><path d="M6871.07,4843.036c-1.062.06-1.575-.231-1.77-.907a1.213,1.213,0,0,1,.765-1.611c2.606-.868,5.228-1.7,7.867-2.462a1.2,1.2,0,0,1,1.43.878,1.122,1.122,0,0,1-.551,1.566C6876.14,4841.441,6873.429,4842.272,6871.07,4843.036Z" transform="translate(-6837.396 -4820.137)" fill="#313c47" stroke="#313c47" stroke-width="1"/><path d="M6788.277,4843.171a5.943,5.943,0,0,1-.613-.139c-2.25-.693-4.5-1.4-6.747-2.09-.9-.279-1.562-.822-1.237-1.809.3-.909,1.021-1.147,2.011-.813,2.313.778,4.661,1.453,6.992,2.174a1.337,1.337,0,0,1,1.111,1.541C6789.686,4842.765,6789.223,4843.2,6788.277,4843.171Z" transform="translate(-6771.483 -4820.259)" fill="#313c47" stroke="#313c47" stroke-width="1"/><path d="M6786.015,4866.635a1.188,1.188,0,0,1-1.548,1.095,36.494,36.494,0,0,1-3.987-1.248,1.217,1.217,0,0,1-.785-1.7,1.28,1.28,0,0,1,1.687-.843c1.206.371,2.4.777,3.606,1.152A1.354,1.354,0,0,1,6786.015,4866.635Z" transform="translate(-6771.478 -4839.151)" fill="#313c47" stroke="#313c47" stroke-width="1"/></g></g></g><g transform="translate(342.076 172.461)"><path d="M170.359,244.083a4.724,4.724,0,1,1-4.724-4.724A4.723,4.723,0,0,1,170.359,244.083Z" transform="translate(-158.911 -239.359)" fill="none" stroke="#313c47" stroke-linecap="round" stroke-linejoin="round" stroke-width="3"/></g></g></g></svg>