<svg xmlns="http://www.w3.org/2000/svg" width="352" height="150" viewBox="0 0 352 150"><g transform="translate(-130 -438.864)"><g transform="translate(0 319)"><g transform="translate(0 -10)"><path d="M4,0H348a4,4,0,0,1,4,4l-.148,146H0V4A4,4,0,0,1,4,0Z" transform="translate(130 129.864)" fill="#e2f1e9"/><path d="M228.442,149.374c-8.657,0-15.739,4.863-15.739,10.806h0c0,10.844-12.923,19.717-28.717,19.717H75.172c-20.518,0-37.306-11.526-37.306-25.613h0c0-14.087,16.787-25.613,37.306-25.613h0c4.118,0,7.487-2.313,7.487-5.14h0c0-2.827-3.369-5.14-7.487-5.14H55.651c-10.01,0-18.2-5.623-18.2-12.5h0c0-6.864,8.171-12.482,18.165-12.5H73.375c8.656,0,15.739-4.863,15.739-10.806h0c0-10.844,12.923-19.716,28.718-19.716h91.09c20.518,0,37.306,11.526,37.306,25.613h0c0,14.087-16.787,25.613-37.306,25.613h0c-4.118,0-7.486,2.313-7.486,5.14h0c0,2.827,3.369,5.14,7.486,5.14h19.52C252.256,124.384,252.256,149.374,228.442,149.374Z" transform="translate(163.039 83.456)" fill="#18aa56" fill-rule="evenodd" opacity="0.05"/></g></g><g transform="translate(-7.666 314.471)"><g transform="translate(277.646 163.177)"><g transform="translate(0 0)"><line x2="10.484" transform="translate(0 4.928)" stroke-width="3" stroke="#313c47" stroke-linecap="round" stroke-linejoin="round" fill="none"/><line y2="9.855" transform="translate(5.462)" stroke-width="3" stroke="#313c47" stroke-linecap="round" stroke-linejoin="round" fill="none"/></g><g transform="translate(-267.848 -475.234)"><g transform="translate(278 486)"><path d="M5872.841,4557.715h1.179q4.007,0,8.014,0c1.361,0,1.462.11,1.466,1.5,0,1.068.005,2.137,0,3.206-.011,2.351-1.222,3.547-3.6,3.554-2.3.006-4.6,0-7.056,0,0,.96.045,1.851-.021,2.733-.029.384-.2.94-.469,1.07a1.414,1.414,0,0,1-1.134-.292c-1.075-.786-2.1-1.644-3.227-2.542-1.048.835-2.062,1.689-3.131,2.468-.338.247-.917.5-1.213.369s-.453-.743-.49-1.161c-.074-.822-.022-1.657-.022-2.644H5861.9c-5.343,0-10.686.007-16.029,0a9.612,9.612,0,0,1-10.018-10.042q-.015-18.126,0-36.252a9.546,9.546,0,0,1,9.749-9.784q17.231-.028,34.462,0a3.1,3.1,0,0,1,3.438,3.389c.009,4.141,0,8.282,0,12.423,0,.589.032,1.233-.781,1.24s-.811-.623-.81-1.22q0-6.011,0-12.022c0-1.758-.439-2.207-2.169-2.208q-17.032,0-34.062,0a7.99,7.99,0,0,0-8.23,8.229c-.022,8.082-.008,16.164-.008,24.245q0,6,0,12a8,8,0,0,0,8.293,8.363c5.41.015,10.819.005,16.229.007h1.08v-4.954c-.35-.016-.732-.047-1.116-.047-4.441,0-8.883.013-13.324-.009a4.594,4.594,0,0,1-4.869-3.86,4.5,4.5,0,0,1,4.256-5.262c3.945-.048,7.89-.032,11.835-.058,2.853-.019,5.706-.083,8.559-.085,2.79,0,5.578.058,8.367.079,1.652.012,3.3,0,5.167,0,0-1.864,0-3.552,0-5.24q0-3.757-.014-7.513c0-.609.044-1.21.845-1.187.751.022.747.617.748,1.173q.005,6.751.016,13.5c0,.715-.426.918-1.037.913-2.79-.021-5.58-.04-8.37-.075-1.183-.015-1.277.07-1.271,1.28C5872.847,4554.529,5872.841,4556.057,5872.841,4557.715Zm-9.769-5.918c-.41-.032-.771-.089-1.132-.085-2.154.023-4.307.084-6.46.084-2.053,0-4.107-.107-6.159-.065a6.1,6.1,0,0,0-2.589.5,2.777,2.777,0,0,0-1.321,3.35,2.944,2.944,0,0,0,2.933,2.126c4.7.018,9.4.008,14.1.005.19,0,.382-.035.628-.06Zm8.129.012c-1.984,0-3.941-.02-5.9.031-.192,0-.533.441-.534.679-.027,4.6-.014,9.21-.005,13.815,0,.307.033.613.058,1.063.889-.709,1.64-1.266,2.339-1.88a1.1,1.1,0,0,1,1.671.014c.711.619,1.47,1.185,2.366,1.9Zm1.682,12.523c2.612,0,5.137.059,7.654-.053a1.773,1.773,0,0,0,1.271-1.138,25.888,25.888,0,0,0,.062-3.714h-8.986Z" transform="translate(-5835.841 -4509.89)" fill="#313c47" stroke="#313c47" stroke-width="1"/><path d="M5879.449,4552.646c0,3.069.006,6.139,0,9.208-.006,2.138-1.131,3.252-3.284,3.254q-7.507.007-15.013,0a2.9,2.9,0,0,1-3.214-3.226q-.013-9.308,0-18.618a2.9,2.9,0,0,1,3.234-3.206q7.507-.013,15.013,0c2.146,0,3.257,1.128,3.262,3.281Q5879.455,4547.99,5879.449,4552.646Zm-3.019,10.817c1.1-.1,1.412-.446,1.414-1.687q.009-9.169,0-18.338c0-1.383-.416-1.788-1.8-1.789q-7.365,0-14.729,0c-1.347,0-1.737.379-1.742,1.717-.01,3.407-.005,6.814-.005,10.221,0,2.772-.005,5.545.006,8.317.005,1.149.365,1.514,1.425,1.529a28.686,28.686,0,0,1,.526-2.935,4.347,4.347,0,0,1,3.595-3.47,5.431,5.431,0,0,0,1.435-.761c-1.024-1.2-1.956-2.263-2.841-3.359a5.029,5.029,0,0,1-.672-1.213c-.716-1.7.843-3.1.645-4.781a2.677,2.677,0,0,1,.83-1.644,5.766,5.766,0,0,1,3.629-1.743,4.577,4.577,0,0,1,5.571,4.595,1.622,1.622,0,0,0,.24.816,3.313,3.313,0,0,1-.2,3.9c-.937,1.1-1.878,2.2-2.946,3.447a6.182,6.182,0,0,0,1.51.759,4.146,4.146,0,0,1,3.389,3.04A33.83,33.83,0,0,1,5876.43,4563.463Zm-1.772.012c-.052-.643-.052-1.2-.148-1.747-.3-1.66-1.006-2.882-2.891-3.238a4.5,4.5,0,0,1-2.012-1.357,1.77,1.77,0,0,1,.175-2.274c.569-.63,1.035-1.352,1.559-2.024a2.29,2.29,0,0,1,.655-.708,1.407,1.407,0,0,0,.9-1.6c-1.022-.539-1.775-.937-2.531-1.333a1.777,1.777,0,0,0-.443-.2c-1.579-.319-3.277-1.344-4.473.727-.04.07-.177.081-.267.125a1.2,1.2,0,0,0-.27,2c1,1.069,1.96,2.166,2.91,3.275a1.457,1.457,0,0,1,.246.744,2.819,2.819,0,0,1-2.339,2.7,3.921,3.921,0,0,0-2.838,4.914Zm-2.611-15.328c.219-1.749-.87-2.9-3.039-3.063-1.767-.135-3.625,1.044-3.705,2.44C5867.775,4545.739,5869.806,4547.4,5872.047,4548.147Z" transform="translate(-5853.496 -4533.997)" fill="#313c47" stroke="#313c47" stroke-width="1"/><path d="M5983.484,4546.17v-1.542h13.326v1.542Z" transform="translate(-5953.848 -4537.656)" fill="#313c47" stroke="#313c47" stroke-width="1"/><path d="M5983.584,4668.451h13.327v1.617h-13.327Z" transform="translate(-5953.927 -4636.623)" fill="#313c47" stroke="#313c47" stroke-width="1"/><path d="M5983.476,4645.347v-1.535H5996.8v1.535Z" transform="translate(-5953.841 -4616.93)" fill="#313c47" stroke="#313c47" stroke-width="1"/><path d="M5983.49,4571v-1.522h13.321V4571Z" transform="translate(-5953.853 -4557.517)" fill="#313c47" stroke="#313c47" stroke-width="1"/><path d="M5997.019,4594.246v1.5h-13.332v-1.5Z" transform="translate(-5954.01 -4577.313)" fill="#313c47" stroke="#313c47" stroke-width="1"/><path d="M5996.994,4619.063v1.537h-13.3v-1.537Z" transform="translate(-5954.012 -4597.148)" fill="#313c47" stroke="#313c47" stroke-width="1"/><path d="M6067.321,4614.292c-.5.465-.765.919-1.1.979a.7.7,0,0,1-.812-.94,1.338,1.338,0,0,1,.767-.9C6066.436,4613.389,6066.793,4613.875,6067.321,4614.292Z" transform="translate(-6019.303 -4592.648)" fill="#313c47" stroke="#313c47" stroke-width="1"/><path d="M5906.44,4603.455a4.338,4.338,0,0,1-3.339-.051C5904.183,4602.489,5905.353,4602.269,5906.44,4603.455Z" transform="translate(-5889.6 -4584.022)" fill="#313c47" stroke="#313c47" stroke-width="1"/></g></g></g><g transform="translate(341.076 173.461)"><path d="M170.359,244.083a4.724,4.724,0,1,1-4.724-4.724A4.723,4.723,0,0,1,170.359,244.083Z" transform="translate(-160.911 -239.359)" fill="none" stroke="#313c47" stroke-linecap="round" stroke-linejoin="round" stroke-width="3"/></g></g></g></svg>