<svg xmlns="http://www.w3.org/2000/svg" width="36.088" height="36.089" viewBox="0 0 36.088 36.089">
  <defs>
    <style>
      .cls-1 {
        fill: #f0f4fb;
        isolation: isolate;
      }

      .cls-2 {
        fill: #c7c7c7;
      }
    </style>
  </defs>
  <g id="Group_52" data-name="Group 52" transform="translate(-77.311 -91.642)">
    <circle id="Ellipse_2" data-name="Ellipse 2" class="cls-1" cx="18.044" cy="18.044" r="18.044" transform="translate(77.311 91.642)"/>
    <path id="Path_94" data-name="Path 94" class="cls-2" d="M88.129,108.544c-.585.109-.775.015-.891-.6s-.183-1.25-.241-1.878c-.045-.5.064-.91.821-.845-.175-.606-.348-1.135-.475-1.675a1.65,1.65,0,0,1,0-.7c.062-.281.279-.546.281-.82a3.029,3.029,0,0,1,1.126-2.559c.877-.565,1.321-1.54,2.232-1.981a18.4,18.4,0,0,1,2.753-1.161c2.473-.735,6.546.316,7.959,3.35.3.167.574.226.646.381a8.441,8.441,0,0,1,.837,2.153,20.031,20.031,0,0,1,.035,2.95c.738.039.663.647.62,1.2a13.43,13.43,0,0,1-.214,1.49c-.133.7-.292.8-.991.695a13.7,13.7,0,0,1-2,5.57.612.612,0,0,0,.025.532q.676,1.092,1.419,2.142a1.424,1.424,0,0,0,.549.447c1.1.508,2.2.99,3.31,1.48a5.161,5.161,0,0,1,2.814,2.5.52.52,0,0,1-.1.682,17.614,17.614,0,0,1-14.764,5.772A17.4,17.4,0,0,1,82.2,122.013a.581.581,0,0,1-.124-.773,4.959,4.959,0,0,1,2.555-2.392c1.1-.5,2.21-.98,3.321-1.457a2.235,2.235,0,0,0,1.088-.987c.345-.6.775-1.14,1.137-1.725a.659.659,0,0,0,.066-.532c-.422-.91-.951-1.776-1.305-2.71S88.391,109.513,88.129,108.544Z"/>
  </g>
</svg>
