<svg xmlns="http://www.w3.org/2000/svg" width="15.667" height="15.554" viewBox="0 0 15.667 15.554">
  <path id="Path_126" data-name="Path 126" d="M1118.735,175.608c.035-.449.067-.9.108-1.345a.569.569,0,0,0-.2-.5c-.313-.289-.61-.6-.923-.885a.567.567,0,0,1-.117-.795c.237-.382.473-.766.725-1.139a.509.509,0,0,0,.061-.5c-.144-.4-.277-.807-.406-1.213-.138-.43-.073-.6.306-.827s.734-.437,1.107-.643a.549.549,0,0,0,.3-.448c.06-.434.139-.865.208-1.3a.55.55,0,0,1,.543-.515c.448-.03.9-.049,1.348-.049a.553.553,0,0,0,.5-.261c.244-.349.506-.687.765-1.025a.569.569,0,0,1,.833-.2c.367.167.734.333,1.09.522a.683.683,0,0,0,.7-.018c.334-.178.683-.328,1.027-.487.413-.192.6-.145.885.225.244.32.491.639.722.969a.587.587,0,0,0,.533.278c.426,0,.852.023,1.278.043a.612.612,0,0,1,.619.607c.061.422.147.84.2,1.263a.5.5,0,0,0,.294.408c.363.2.722.407,1.079.617.409.242.472.406.327.85-.124.383-.243.768-.388,1.144a.61.61,0,0,0,.085.626c.231.33.439.676.649,1.02.236.387.215.545-.113.873-.285.285-.57.57-.868.841a.587.587,0,0,0-.219.558c.052.423.075.849.091,1.275s-.1.57-.51.692-.816.247-1.229.354a.518.518,0,0,0-.376.337c-.152.373-.313.743-.47,1.113-.2.477-.365.562-.887.457-.383-.078-.767-.152-1.148-.241a.577.577,0,0,0-.553.142c-.321.281-.66.54-.987.814a.579.579,0,0,1-.832-.006c-.308-.259-.632-.5-.929-.772a.68.68,0,0,0-.681-.163c-.379.093-.764.165-1.148.24a.581.581,0,0,1-.785-.411c-.169-.392-.338-.783-.5-1.179a.515.515,0,0,0-.376-.335c-.446-.119-.889-.253-1.33-.388A.553.553,0,0,1,1118.735,175.608Zm6.126-.358a.817.817,0,0,0,.641-.452q1.516-2.278,3.036-4.553c.552-.829.55-.838-.285-1.4-.521-.35-.634-.327-.992.208-.783,1.172-1.571,2.341-2.342,3.521-.17.259-.287.284-.5.051-.408-.446-.839-.869-1.258-1.305a.5.5,0,0,0-.692-.142c-.516.328-.843.834-.724,1.122a.6.6,0,0,0,.122.173q1.217,1.245,2.436,2.488A.948.948,0,0,0,1124.861,175.25Z" transform="translate(-1117.488 -163.861)" fill="#3c485e"/>
</svg>
