<svg xmlns="http://www.w3.org/2000/svg" width="64.245" height="64.041" viewBox="0 0 64.245 64.041"><defs><style>.a{fill:#e22;}.a,.b,.c,.d{fill-rule:evenodd;}.b{fill:#09c;}.c{fill:#fc0;}.d{fill:#0a5;}</style></defs><g transform="translate(-533.277 -191.449)"><g transform="translate(533.277 191.449)"><path class="a" d="M546.7,229.164l1.978.274a17.235,17.235,0,0,1-.24-2.855A16.975,16.975,0,0,1,559.169,210.8c0-.8-.086-2.022-.171-3.96l-.334-1.928c-4.26.97-8.333,4.111-10.957,7.171-3.344,3.9-4.963,8.876-5.24,14.661l-9.19,1.673,13.416.753Z" transform="translate(-533.277 -194.563)"/><path class="b" d="M589.97,217.292l5.7-.094c-.765-4.107-4.04-8.5-6.971-11.018a24.492,24.492,0,0,0-14.666-5.419c-1.383-2.483-1.011-6.666-2.1-9.313l-.8,15.322a16.992,16.992,0,0,1,18.84,10.521Z" transform="translate(-542.036 -191.449)"/><path class="c" d="M582.624,248.2a12.6,12.6,0,0,0,.473,5.7c6.243-1.258,12.255-7.389,14.674-13.585,1.261-3.233.995-5.26,1.663-8.238,2.118-.374,8.027-1.776,9.475-1.784l-15.384-.836a16.978,16.978,0,0,1-10.9,18.741Z" transform="translate(-544.664 -200.243)"/><path class="d" d="M546.626,241.2c.5,3.9,4.5,8.97,7.2,11.186,4.313,3.547,8.386,4.643,14.584,5.258l1.8,9.323.839-15.245a16.986,16.986,0,0,1-18.394-10.684Z" transform="translate(-536.366 -202.922)"/></g></g></svg>