<?xml version="1.0" encoding="utf-8"?>
<!-- Generator: Adobe Illustrator 22.1.0, SVG Export Plug-In . SVG Version: 6.00 Build 0)  -->
<svg version="1.1" id="Layer_1" xmlns="http://www.w3.org/2000/svg" xmlns:xlink="http://www.w3.org/1999/xlink" x="0px" y="0px"
	 viewBox="0 0 88.4 58.2" style="enable-background:new 0 0 88.4 58.2;" xml:space="preserve">
<style type="text/css">
	.st0{clip-path:url(#SVGID_2_);fill-rule:evenodd;clip-rule:evenodd;fill:#FFFFFF;}
	.st1{clip-path:url(#SVGID_4_);}
	.st2{clip-path:url(#SVGID_6_);fill-rule:evenodd;clip-rule:evenodd;fill:#FFFFFF;}
	.st3{clip-path:url(#SVGID_6_);fill:#EE2222;}
	.st4{clip-path:url(#SVGID_6_);fill:none;stroke:#BFBFBF;stroke-width:0.6066;stroke-linejoin:round;stroke-miterlimit:10;}
	.st5{clip-path:url(#SVGID_6_);}
	.st6{clip-path:url(#SVGID_8_);fill:#7F7F7F;}
	.st7{clip-path:url(#SVGID_10_);fill:#7F7F7F;}
	.st8{clip-path:url(#SVGID_12_);fill:#7F7F7F;}
	.st9{clip-path:url(#SVGID_14_);fill:#7F7F7F;}
	.st10{clip-path:url(#SVGID_16_);fill:#7F7F7F;}
	.st11{clip-path:url(#SVGID_18_);fill:#7F7F7F;}
	.st12{clip-path:url(#SVGID_20_);fill:#7F7F7F;}
	.st13{clip-path:url(#SVGID_22_);fill:#7F7F7F;}
	.st14{clip-path:url(#SVGID_24_);fill:#7F7F7F;}
	.st15{fill:none;stroke:#00AEEF;stroke-width:1.75;stroke-miterlimit:10;}
	.st16{fill:none;stroke:#BFBFBF;stroke-width:0.48;stroke-linejoin:round;stroke-miterlimit:10;stroke-dasharray:1.92,1.44;}
	.st17{fill:none;stroke:#898989;stroke-width:0.48;stroke-linejoin:round;stroke-miterlimit:10;}
	
		.st18{clip-path:url(#SVGID_40_);fill:none;stroke:#00AEEF;stroke-width:2.4;stroke-linecap:round;stroke-linejoin:round;stroke-miterlimit:10;}
	.st19{clip-path:url(#SVGID_64_);}
	.st20{clip-path:url(#SVGID_66_);fill:#009E4D;}
	.st21{clip-path:url(#SVGID_66_);fill:#FFD400;}
	.st22{clip-path:url(#SVGID_66_);fill:#2BABE2;}
	.st23{clip-path:url(#SVGID_66_);fill:#ED1C24;}
	.st24{clip-path:url(#SVGID_66_);}
	.st25{clip-path:url(#SVGID_66_);fill:none;stroke:#231F20;stroke-width:2.056464e-02;stroke-linejoin:round;stroke-miterlimit:10;}
	.st26{clip-path:url(#SVGID_66_);fill:#231F20;}
	.st27{fill:none;stroke:#00AEEF;stroke-width:1.75;stroke-miterlimit:8;}
	.st28{fill-rule:evenodd;clip-rule:evenodd;fill:#00AEEF;}
	.st29{fill-rule:evenodd;clip-rule:evenodd;fill:#0088BB;}
	.st30{fill:none;stroke:#FFFFFF;stroke-width:0.72;stroke-linejoin:round;stroke-miterlimit:8;}
	.st31{fill-rule:evenodd;clip-rule:evenodd;fill:#44BBDD;}
	.st32{fill-rule:evenodd;clip-rule:evenodd;fill:#FF0000;}
	.st33{fill-rule:evenodd;clip-rule:evenodd;fill:#881111;}
	.st34{fill-rule:evenodd;clip-rule:evenodd;fill:#009955;}
	.st35{fill-rule:evenodd;clip-rule:evenodd;fill:#33BB77;}
	.st36{fill-rule:evenodd;clip-rule:evenodd;fill:#FFBBBB;}
	.st37{fill-rule:evenodd;clip-rule:evenodd;fill:#AA8800;}
	.st38{fill-rule:evenodd;clip-rule:evenodd;fill:#CC9900;}
	.st39{fill-rule:evenodd;clip-rule:evenodd;fill:#FFCC00;}
	.st40{fill-rule:evenodd;clip-rule:evenodd;fill:#CCCCCC;}
	.st41{fill-rule:evenodd;clip-rule:evenodd;fill:#FFFFFF;}
	.st42{clip-path:url(#SVGID_72_);fill-rule:evenodd;clip-rule:evenodd;fill:#A6A6A6;}
	.st43{clip-path:url(#SVGID_74_);fill:none;stroke:#FFFFFF;stroke-width:0.72;stroke-linejoin:round;stroke-miterlimit:8;}
	.st44{clip-path:url(#SVGID_76_);fill-rule:evenodd;clip-rule:evenodd;fill:#7F7F7F;}
	.st45{clip-path:url(#SVGID_78_);fill:none;stroke:#FFFFFF;stroke-width:0.72;stroke-linejoin:round;stroke-miterlimit:8;}
	.st46{fill:none;stroke:#FFFFFF;stroke-width:0.5;stroke-linejoin:round;stroke-miterlimit:8;}
	.st47{fill:none;stroke:#0099CC;stroke-width:0.5;stroke-linejoin:round;stroke-miterlimit:8;}
	.st48{fill-rule:evenodd;clip-rule:evenodd;fill:#666666;}
	.st49{fill:none;stroke:#666666;stroke-miterlimit:8;}
	.st50{fill-rule:evenodd;clip-rule:evenodd;fill:#00AA55;}
	.st51{fill-rule:evenodd;clip-rule:evenodd;fill:#EE2222;}
	.st52{fill-rule:evenodd;clip-rule:evenodd;fill:#FFFF00;}
	.st53{fill:none;stroke:#EE2222;stroke-miterlimit:8;}
	.st54{clip-path:url(#SVGID_366_);fill:#009E4D;}
	.st55{clip-path:url(#SVGID_366_);fill:#FFD400;}
	.st56{clip-path:url(#SVGID_366_);fill:#2BABE2;}
	.st57{clip-path:url(#SVGID_366_);fill:#ED1C24;}
	.st58{clip-path:url(#SVGID_366_);}
	
		.st59{clip-path:url(#SVGID_366_);fill:none;stroke:#231F20;stroke-width:2.056464e-02;stroke-linejoin:round;stroke-miterlimit:10;}
	.st60{clip-path:url(#SVGID_366_);fill:#231F20;}
</style>
<g>
	<defs>
		<rect id="SVGID_365_" width="88.4" height="58.2"/>
	</defs>
	<clipPath id="SVGID_2_">
		<use xlink:href="#SVGID_365_"  style="overflow:visible;"/>
	</clipPath>
	<path style="clip-path:url(#SVGID_2_);fill:#009E4D;" d="M64,2.6c0,0,0,0.1,0,0.1c0,0.1,0.1,0.1,0.1,0.1c0,0,1.3-0.1,3.4,0.3
		c8.2,1.5,12.7,7,12.8,7.1c0,0,0,0,0.1,0s0.1,0,0.1-0.1c0,0,0.3-1.8,2-3.4c1.7-1.6,3.3-2.1,3.3-2.1c0,0,0-0.1,0.1-0.1
		c0,0,0-0.1-0.1-0.1c0,0-5.5-4-11.8-4l0,0C68.1,0.3,64.1,2.6,64,2.6z"/>
	<path style="clip-path:url(#SVGID_2_);fill:#FFD400;" d="M63.7,3C63.7,3,63.7,3,63.7,3c-0.1,0.1-0.1,0.2-0.1,0.2c3.3,6,3.3,6,3.3,6
		c0.6,1,4.2,7.1,4.2,7.1c0,0,0,0.1,0.1,0.1c0,0,0.1,0,0.1-0.1c0,0,0.1-0.4,0.8-1.1c3.2-3.8,7.5-3.7,7.6-3.7c0,0,0.1,0,0.1,0
		c0,0,0-0.1,0-0.1c0,0-2.5-3.6-6.7-5.9C67.6,2.6,63.8,3,63.7,3z"/>
	<path style="clip-path:url(#SVGID_2_);fill:#2BABE2;" d="M63.3,3.3c0,0-0.4,0.5-0.7,1C58.1,12.4,61,20.5,61,20.6c0,0,0.1,0,0.1,0.1
		c0,0,0.1,0,0.1-0.1c0,0,0.3-0.4,1-1c3.4-3,7.9-2.5,7.9-2.5c0,0,0.1,0,0.1,0c0,0,0-0.1,0-0.1c-3.3-6.5-3.3-6.5-3.3-6.5l0,0
		c-0.6-1.1-3.4-7-3.4-7C63.5,3.2,63.4,3.2,63.3,3.3C63.3,3.2,63.3,3.2,63.3,3.3z"/>
	<path style="clip-path:url(#SVGID_2_);fill:#ED1C24;" d="M62.9,3.2c0,0-4.7,2.5-7.9,8c-3.4,5.9-2.7,10.7-2.7,10.8c0,0,0,0,0.1,0.1
		c0,0,0.1,0,0.1,0c0,0,1.8-1.6,4.9-1.6c1.8,0,2.4,0.3,2.4,0.4c0,0,0.1,0,0.2,0c0,0,0,0,0-0.1c0,0,0,0,0,0c0,0-0.7-2.3-0.7-5.6
		c0-2.9,0.6-6.5,2.7-10.2C62.5,4.1,63,3.4,63,3.3v0c0,0,0-0.1,0-0.1C63,3.2,62.9,3.2,62.9,3.2z"/>
	<path style="clip-path:url(#SVGID_2_);" d="M68.4,34.6c-0.6,0.4-1.4,0.7-2.1,0.7c-1.5,0-2.8-1.2-2.8-3c0-0.9,0.3-1.5,0.9-2
		c1,1.5,2.6,3,4.3,4C68.6,34.5,68.5,34.6,68.4,34.6z M66.1,25.2c0.9,0,1.2,0.7,1.2,1.5c0,1-0.9,1.6-1.7,2c-0.4-0.8-0.7-1.5-0.7-2.2
		S65.3,25.2,66.1,25.2z M74.5,36.1c-1.1-0.3-2.6-1.2-4.1-2.3c0.3-0.5,0.6-1,0.8-1.5c0.5-1.2,0.7-1.8,1.8-1.9c0-0.5,0-0.5,0-0.5
		c-0.6,0-1.2,0-1.8,0c-0.6,0-1.2,0-1.8,0c0,0.5,0,0.5,0,0.5c0.4,0.1,0.8,0.1,1.2,0.2c0,0.5-0.3,1.3-0.5,1.9
		c-0.1,0.3-0.3,0.5-0.4,0.7c-1.4-1.1-2.7-2.4-3.7-3.7c1.3-0.6,2.9-1.3,2.9-3c0-1.5-1.1-2.3-2.6-2.3c-1.7,0-3.1,1.2-3.1,2.8
		c0,0.8,0.3,1.6,0.7,2.4c-1.5,0.8-2.5,1.7-2.5,3.4c0,2.5,2,3.7,4.3,3.7c1.6,0,2.9-0.7,3.8-1.7c1.7,1,3.5,1.6,4.9,1.7L74.5,36.1z"/>
	<path style="clip-path:url(#SVGID_2_);" d="M68.2,44.6c-0.1-0.5-0.3-1-1-1c-0.4,0-1,0.4-1.3,0.7c0,4.1,0,4.1,0,4.1
		c0,1.3,0.6,1.2,1.7,1.3c0,0.5,0,0.5,0,0.5c-1,0-1.9,0-2.8,0c-0.7,0-1.4,0-2.1,0c0-0.5,0-0.5,0-0.5c1.1-0.2,1.1-0.2,1.1-0.2
		c0-5,0-5,0-5c0-0.6-0.1-1-0.8-1c-0.1,0-0.3,0-0.4,0c0-0.5,0-0.5,0-0.5c0.5-0.1,1.1-0.3,1.6-0.4c0.4-0.1,0.9-0.3,1.2-0.3
		c0.5,0,0.5,0.7,0.5,1.1c0,0.2,0,0.2,0,0.2c0.5-0.6,1.4-1.3,2.2-1.3c0.8,0,1.3,0.4,1.3,1.2C69.4,44,68.8,44.6,68.2,44.6z"/>
	<path style="clip-path:url(#SVGID_2_);" d="M52.5,50c-0.7,0-1.5,0-2.2,0c0-0.5,0-0.5,0-0.5c1.1-0.2,1.1-0.2,1.1-0.2
		c0-3.9,0-3.9,0-3.9c0-0.9,0-2-1.2-2c-0.6,0-1.4,0.3-2,0.6c0,4.5,0,4.5,0,4.5c0,0.8,0.3,0.9,1,1c0,0.5,0,0.5,0,0.5
		c-0.7,0-1.5,0-2.2,0c-0.7,0-1.4,0-2.1,0c0-0.5,0-0.5,0-0.5c1.1-0.2,1.1-0.2,1.1-0.2c0-4.9,0-4.9,0-4.9c0-0.6,0-1.1-0.8-1.1
		c-0.1,0-0.3,0-0.4,0c0-0.5,0-0.5,0-0.5c0.6-0.1,1.1-0.3,1.7-0.4c0.5-0.1,0.9-0.3,1.2-0.3c0.6,0,0.5,0.8,0.5,1.3
		c0.9-0.5,2.3-1.3,3.3-1.3c0.7,0,1.1,0.1,1.6,0.7c0.5,0.6,0.5,1.6,0.5,2.3c0,3.4,0,3.4,0,3.4c0,1,0.6,0.9,1.4,1c0,0.5,0,0.5,0,0.5
		C54.1,50,53.3,50,52.5,50z"/>
	<path style="clip-path:url(#SVGID_2_);" d="M29.5,36.3c-9.9,0-9.9,0-9.9,0c0-0.5,0-0.5,0-0.5c1.8-0.3,1.8-0.3,1.8-0.3
		c0-9.1,0-9.1,0-9.1c0-1-0.3-1.3-1.7-1.3c0-0.5,0-0.5,0-0.5c5.8,0,5.8,0,5.8,0c0,0.5,0,0.5,0,0.5c-1.7,0.3-1.7,0.3-1.7,0.3
		c0,9.1,0,9.1,0,9.1c0,1,0.3,1.1,1.7,1.1c2.3,0,3.1-0.2,3.7-2.5c0.6,0,0.6,0,0.6,0L29.5,36.3z"/>
	<path style="clip-path:url(#SVGID_2_);" d="M36.7,45c-0.8,0-1.1,0.2-1.1,1c0,0,0,2.5,0,3.4c-1.2,0.5-2.7,0.9-4.4,0.9
		c-3.6,0-6-2.5-6-6c0-3.4,2.7-6.2,6.2-6.2c1.7,0,3.1,0.4,4.1,0.7c0,3,0,3,0,3c-0.5,0-0.5,0-0.5,0c-0.1-0.9-0.5-1.7-1-2.2
		c-0.6-0.5-1.3-0.8-2.2-0.8c-3,0-3.7,3.5-3.7,5.5c0,2.1,0.7,5.1,3.4,5.1c1.4,0,1.8-0.5,1.8-2c0-2.3,0-2.3,0-2.3
		C31.8,45,31.8,45,31.8,45c0-0.6,0-0.6,0-0.6c5.2,0,5.2,0,5.2,0c0,0.6,0,0.6,0,0.6H36.7z"/>
	<path style="clip-path:url(#SVGID_2_);" d="M73.5,46.2c-1.1,0-2.8,0.2-2.8,1.8c0,0.8,0.4,1.3,1.2,1.3c0.7,0,1.2-0.5,1.4-1
		c0.2-0.4,0.2-0.7,0.2-1.2V46.2z M75.3,50.2c-0.8,0-1.4-0.2-1.7-1c-0.6,0.8-1.7,1-2.4,1c-1.5,0-2.8-0.6-2.8-2.2
		c0-2.6,3.4-2.6,5.2-2.6c0-1,0-1,0-1c0-1-0.4-1.3-1.5-1.3c-0.7,0-1.4,0.2-2,0.4c0-1,0-1,0-1c0.9-0.2,1.7-0.4,2.7-0.4
		c0.7,0,1.8,0.1,2.4,0.7c0.6,0.6,0.6,1.3,0.6,2c0,3.6,0,3.6,0,3.6c0,0.6,0.2,1.1,0.8,1.1c0.5,0,1.1,0,1.7-0.1c0-8.9,0-8.9,0-8.9
		c0-0.7,0-1.2-0.8-1.2c-0.2,0-0.3,0-0.4,0c0-0.5,0-0.5,0-0.5c0.5-0.1,1.1-0.3,1.7-0.4c0.5-0.1,0.9-0.3,1.2-0.3
		c0.7,0,0.6,0.8,0.6,1.2c0,9.2,0,9.2,0,9.2c0,0.8,0.5,0.9,1.8,1c0,0.5,0,0.5,0,0.5C79.8,50,77.6,50.2,75.3,50.2z"/>
	<path style="clip-path:url(#SVGID_2_);" d="M50.8,32.4c-1.2,0-2.8,0.2-2.8,1.8c0,0.8,0.3,1.3,1.2,1.3c0.7,0,1.3-0.5,1.5-1
		c0.1-0.4,0.2-0.8,0.2-1.2V32.4z M52.6,36.4c-0.8,0-1.4-0.2-1.7-1c-0.6,0.8-1.7,1.1-2.5,1.1c-1.4,0-2.8-0.6-2.8-2.2
		c0-2.6,3.3-2.6,5.2-2.6c0-1,0-1,0-1c0-1-0.5-1.3-1.5-1.3c-0.7,0-1.4,0.2-2,0.4c0-1,0-1,0-1c0.9-0.3,1.7-0.4,2.7-0.4
		c0.7,0,1.8,0.1,2.4,0.7c0.6,0.6,0.6,1.3,0.6,2.1c0,3.5,0,3.5,0,3.5c0,0.6,0.2,1.1,0.8,1.1c0.6,0,1.1,0,1.7-0.1c0-8.9,0-8.9,0-8.9
		c0-0.6,0-1.2-0.8-1.2c-0.1,0-0.3,0-0.4,0c0-0.5,0-0.5,0-0.5c0.5-0.1,1.1-0.3,1.6-0.4c0.5-0.1,0.9-0.3,1.2-0.3
		c0.6,0,0.5,0.8,0.5,1.2c0,9.2,0,9.2,0,9.2c0,0.8,0.5,0.9,1.8,1c0,0.5,0,0.5,0,0.5C57.2,36.3,54.9,36.4,52.6,36.4z"/>
	<path style="clip-path:url(#SVGID_2_);" d="M58.8,42.9c-1.2,0-1.7,1.4-1.7,2.4c2.1-0.2,2.1-0.2,2.1-0.2c0.6,0,0.9-0.1,0.9-0.7
		C60,43.6,59.6,42.9,58.8,42.9z M62.2,46C57,46,57,46,57,46c0,2,0.8,3.2,2.9,3.2c0.6,0,1.2-0.1,1.7-0.3c0,0.7,0,0.7,0,0.7
		c-0.9,0.4-1.7,0.6-2.7,0.6c-2.4,0-4.3-1.6-4.3-4.1c0-2.5,1.8-4,4.2-4c1.9,0,3.4,1.3,3.4,3.3C62.3,45.6,62.3,45.8,62.2,46z"/>
	<path style="clip-path:url(#SVGID_2_);" d="M42.5,36.7c-0.7,0-1,0.1-1.7,0.1c-0.4,0-0.9,0-1.2-0.2c-0.2,0.2-0.4,0.6-0.4,0.9
		c0,1,1,1.5,2.5,1.5c1.7,0,2.7-0.6,2.7-1.4C44.4,36.6,43.2,36.7,42.5,36.7z M41.9,29.2c-0.9,0-1.4,0.8-1.4,1.8
		c0,1.1,0.3,2.3,1.5,2.3c0.9,0,1.3-0.7,1.3-1.7C43.3,30.5,43,29.2,41.9,29.2z M46.4,29.2c-0.3-0.3-0.7-0.5-1.2-0.5
		c-0.3,0-0.5,0.3-0.7,0.6c0.5,0.4,0.8,1.2,0.8,1.8c0,1.9-1.5,3-3.3,3c-0.3,0-0.7,0-1.1-0.1c-0.2,0.3-0.5,0.5-0.8,0.6
		c0,0.3,0.4,0.4,0.7,0.4c0.6,0,1.2,0,1.8,0c1.3,0,2.9,0.4,2.9,2c0,2.3-2.4,3.3-4.3,3.3c-1.4,0-3.6-0.7-3.6-2.3
		c0-0.8,0.6-1.3,1.3-1.6c-0.5-0.3-0.7-0.9-0.7-1.5c0-0.1,0-0.2,0-0.3c0.5-0.1,1.5-0.3,1.9-0.7c-1.1-0.4-1.7-1.3-1.7-2.4
		c0-2,1.7-2.9,3.5-2.9c0.7,0,1.5,0.1,2,0.5c0.2-0.8,0.9-1.4,1.7-1.4c0.3,0,1.1,0.1,1.1,0.6C46.8,28.5,46.6,28.9,46.4,29.2z"/>
	<path style="clip-path:url(#SVGID_2_);" d="M34.3,29.2c-1.3,0-1.7,1.5-1.8,2.5c2.1-0.2,2.1-0.2,2.1-0.2c0.6,0,0.9-0.1,0.9-0.7
		C35.6,30,35.1,29.2,34.3,29.2z M37.8,32.3c-5.2,0.1-5.2,0.1-5.2,0.1c0,1.9,0.8,3.2,2.9,3.2c0.6,0,1.2-0.1,1.7-0.3
		c0,0.7,0,0.7,0,0.7c-0.9,0.4-1.7,0.6-2.7,0.6c-2.4,0-4.4-1.6-4.4-4.1c0-2.5,1.8-4,4.2-4c2,0,3.4,1.3,3.4,3.3
		C37.8,31.9,37.8,32.1,37.8,32.3z"/>
	<path style="clip-path:url(#SVGID_2_);" d="M41.3,42.9c-1.2,0-1.7,1.4-1.7,2.4c2.1-0.2,2.1-0.2,2.1-0.2c0.5,0,0.9-0.1,0.9-0.7
		C42.5,43.6,42.1,42.9,41.3,42.9z M44.7,46c-5.2,0-5.2,0-5.2,0c0,2,0.9,3.2,2.9,3.2c0.6,0,1.2-0.1,1.7-0.3c0,0.7,0,0.7,0,0.7
		c-0.9,0.4-1.7,0.6-2.7,0.6c-2.4,0-4.4-1.6-4.4-4.1c0-2.5,1.8-4,4.2-4c2,0,3.4,1.3,3.4,3.3C44.8,45.6,44.8,45.8,44.7,46z"/>
	<path style="clip-path:url(#SVGID_2_);" d="M67,9.1c-0.3-0.5-3.3-6-3.3-6s3.8-0.4,9.3,2.5c4.3,2.3,6.7,5.8,6.7,5.8
		s-4.4-0.2-7.7,3.7c-0.7,0.8-0.8,1.2-0.8,1.2S67.6,10.1,67,9.1z M62.2,19.4c-0.8,0.7-1,1.1-1,1.1s-3-8,1.5-16.2c0.3-0.6,0.7-1,0.7-1
		s2.8,5.9,3.4,7c0.6,1.2,3.4,6.5,3.4,6.5S65.6,16.4,62.2,19.4z M57.4,20.4c-3.2,0-5,1.6-5,1.6s-0.8-4.8,2.7-10.7
		c3.3-5.5,7.9-7.9,7.9-7.9S62.3,4,61.9,4.9c-4.6,8.1-1.9,15.9-1.9,15.9S59.3,20.4,57.4,20.4z M74,0.5c6.3,0,11.8,4,11.8,4
		S84.1,5,82.4,6.6c-1.7,1.7-2,3.5-2,3.5S75.9,4.5,67.5,3c-2.1-0.4-3.4-0.2-3.4-0.2S68.1,0.4,74,0.5z M82.9,29.3c0,0-0.2-0.1-0.7,0.1
		c-0.4,0.2-0.3,0.5-0.3,0.5l0,0c0.1,0.2,0.5,1,0.7,1.4c0.2,0.5,0.2,1-0.5,1.6c-0.4,0.3-1.1,0.4-1.7,0.1c-0.1,0-0.3-0.2-0.5-0.4
		c-0.2-0.3-3.2-5.8-3.2-5.8c-5-9.1-5-9.1-5-9.1s-0.1-0.2-0.1-0.3c0-0.2,0.1-0.3,0.1-0.3c3.2-5.2,9.2-4.6,9.2-4.6s0-0.7,0.1-1.6
		c1-5,7-6.1,7-6.1s-2.4-1.9-6-3.2c-2.6-1-4.8-1.5-8.1-1.5c-3.9,0-7.4,1.2-7.7,1.3c-1.1,0.3-2.7,1.2-2.7,1.2
		c-1.5-2.3-1.5-2.3-1.5-2.3s0,0-0.2,0c-0.1,0-0.1,0.1-0.1,0.1c1,2.5,1,2.5,1,2.5S62.5,3,62.1,3.3C61.3,3.8,60,4.6,58,6.5
		c-1.3,1.2-3,3.4-4.4,5.8c-3.1,5.7-2.4,11.6-2.4,11.6s2.5-2.6,6.2-2.6c2.3,0,3.7,0.7,3.7,0.7s0.5-1,1.6-1.9c1.9-1.7,4.8-2.4,7-2.4
		c0.5,0,0.7,0,0.9,0.1c0.1,0,0.2,0.2,0.2,0.2c8.1,14.9,8.1,14.9,8.1,14.9s0.7,1.4,2.4,1.4c1.8-0.1,2.7-1.3,2.7-2.5
		C84,30.9,83,29.6,82.9,29.3z"/>
	
		<path style="clip-path:url(#SVGID_2_);fill:none;stroke:#231F20;stroke-width:2.056464e-02;stroke-linejoin:round;stroke-miterlimit:10;" d="
		M67,9.1c-0.3-0.5-3.3-6-3.3-6s3.8-0.4,9.3,2.5c4.3,2.3,6.7,5.8,6.7,5.8s-4.4-0.2-7.7,3.7c-0.7,0.8-0.8,1.2-0.8,1.2
		S67.6,10.1,67,9.1z M62.2,19.4c-0.8,0.7-1,1.1-1,1.1s-3-8,1.5-16.2c0.3-0.6,0.7-1,0.7-1s2.8,5.9,3.4,7c0.6,1.2,3.4,6.5,3.4,6.5
		S65.6,16.4,62.2,19.4z M57.4,20.4c-3.2,0-5,1.6-5,1.6s-0.8-4.8,2.7-10.7c3.3-5.5,7.9-7.9,7.9-7.9S62.3,4,61.9,4.9
		c-4.6,8.1-1.9,15.9-1.9,15.9S59.3,20.4,57.4,20.4z M74,0.5c6.3,0,11.8,4,11.8,4S84.1,5,82.4,6.6c-1.7,1.7-2,3.5-2,3.5
		S75.9,4.5,67.5,3c-2.1-0.4-3.4-0.2-3.4-0.2S68.1,0.4,74,0.5z M82.9,29.3c0,0-0.2-0.1-0.7,0.1c-0.4,0.2-0.3,0.5-0.3,0.5l0,0
		c0.1,0.2,0.5,1,0.7,1.4c0.2,0.5,0.2,1-0.5,1.6c-0.4,0.3-1.1,0.4-1.7,0.1c-0.1,0-0.3-0.2-0.5-0.4c-0.2-0.3-3.2-5.8-3.2-5.8
		c-5-9.1-5-9.1-5-9.1s-0.1-0.2-0.1-0.3c0-0.2,0.1-0.3,0.1-0.3c3.2-5.2,9.2-4.6,9.2-4.6s0-0.7,0.1-1.6c1-5,7-6.1,7-6.1
		s-2.4-1.9-6-3.2c-2.6-1-4.8-1.5-8.1-1.5c-3.9,0-7.4,1.2-7.7,1.3c-1.1,0.3-2.7,1.2-2.7,1.2c-1.5-2.3-1.5-2.3-1.5-2.3s0,0-0.2,0
		c-0.1,0-0.1,0.1-0.1,0.1c1,2.5,1,2.5,1,2.5S62.5,3,62.1,3.3C61.3,3.8,60,4.6,58,6.5c-1.3,1.2-3,3.4-4.4,5.8
		c-3.1,5.7-2.4,11.6-2.4,11.6s2.5-2.6,6.2-2.6c2.3,0,3.7,0.7,3.7,0.7s0.5-1,1.6-1.9c1.9-1.7,4.8-2.4,7-2.4c0.5,0,0.7,0,0.9,0.1
		c0.1,0,0.2,0.2,0.2,0.2c8.1,14.9,8.1,14.9,8.1,14.9s0.7,1.4,2.4,1.4c1.8-0.1,2.7-1.3,2.7-2.5C84,30.9,83,29.6,82.9,29.3z"/>
	<rect x="0" y="53.7" style="clip-path:url(#SVGID_2_);fill:#231F20;" width="0.9" height="4.3"/>
	<polygon style="clip-path:url(#SVGID_2_);fill:#231F20;" points="1.7,53.7 3,53.7 4.6,57.1 4.6,53.7 5.4,53.7 5.4,58 4.1,58 
		2.5,54.5 2.5,58 1.7,58 	"/>
	<polygon style="clip-path:url(#SVGID_2_);fill:#231F20;" points="6.7,53.7 7.9,57.1 9,53.7 9.9,53.7 8.4,58 7.4,58 5.7,53.7 	"/>
	<polygon style="clip-path:url(#SVGID_2_);fill:#231F20;" points="10.3,53.7 13.1,53.7 13.1,54.4 11.2,54.4 11.2,55.4 13,55.4 
		13,56.1 11.2,56.1 11.2,57.3 13.2,57.3 13.2,58 10.3,58 	"/>
	<path style="clip-path:url(#SVGID_2_);fill:#231F20;" d="M14.5,56.7c0,0.2,0,0.8,0.8,0.8c0.5,0,0.8-0.2,0.8-0.6
		c0-0.4-0.3-0.5-0.8-0.6c-1-0.2-1.6-0.5-1.6-1.3s0.5-1.3,1.7-1.3c0.4,0,1,0.1,1.3,0.5c0.2,0.3,0.2,0.7,0.2,0.8C16,55,16,55,16,55
		c0-0.1,0-0.7-0.7-0.7c-0.4,0-0.7,0.2-0.7,0.6c0,0.4,0.3,0.5,0.9,0.7c0.7,0.2,1.5,0.3,1.5,1.2c0,0.8-0.7,1.4-1.8,1.4
		c-1.6,0-1.7-1-1.7-1.4H14.5z"/>
	<polygon style="clip-path:url(#SVGID_2_);fill:#231F20;" points="18.4,54.4 17.1,54.4 17.1,53.7 20.6,53.7 20.6,54.4 19.3,54.4 
		19.3,58 18.4,58 	"/>
	<polygon style="clip-path:url(#SVGID_2_);fill:#231F20;" points="20.9,53.7 22.4,53.7 23.3,56.8 24.3,53.7 25.7,53.7 25.7,58 
		24.8,58 24.8,54.4 23.6,58 22.9,58 21.8,54.4 21.8,58 20.9,58 	"/>
	<polygon style="clip-path:url(#SVGID_2_);fill:#231F20;" points="26.5,53.7 29.3,53.7 29.3,54.4 27.4,54.4 27.4,55.4 29.2,55.4 
		29.2,56.1 27.4,56.1 27.4,57.3 29.4,57.3 29.4,58 26.5,58 	"/>
	<polygon style="clip-path:url(#SVGID_2_);fill:#231F20;" points="29.9,53.7 31.3,53.7 32.9,57.1 32.9,53.7 33.7,53.7 33.7,58 
		32.5,58 30.8,54.5 30.8,58 29.9,58 	"/>
	<polygon style="clip-path:url(#SVGID_2_);fill:#231F20;" points="35.3,54.4 34.1,54.4 34.1,53.7 37.5,53.7 37.5,54.4 36.3,54.4 
		36.3,58 35.3,58 	"/>
	<polygon style="clip-path:url(#SVGID_2_);fill:#231F20;" points="39.3,53.7 40.9,53.7 41.8,56.8 42.7,53.7 44.2,53.7 44.2,58 
		43.3,58 43.3,54.4 42.1,58 41.3,58 40.2,54.4 40.2,58 39.3,58 	"/>
	<path style="clip-path:url(#SVGID_2_);fill:#231F20;" d="M47.1,56.4l-0.6-1.8l-0.7,1.8H47.1z M47.1,53.7l1.5,4.3h-0.9l-0.3-0.9
		h-1.7L45.4,58h-0.9l1.6-4.3H47.1z"/>
	<polygon style="clip-path:url(#SVGID_2_);fill:#231F20;" points="49.1,53.7 50.4,53.7 52,57.1 52,53.7 52.8,53.7 52.8,58 51.6,58 
		49.9,54.5 49.9,58 49.1,58 	"/>
	<path style="clip-path:url(#SVGID_2_);fill:#231F20;" d="M55.8,56.4l-0.6-1.8l-0.6,1.8H55.8z M55.8,53.7l1.5,4.3h-0.9L56,57.1h-1.7
		L54,58h-0.9l1.5-4.3H55.8z"/>
	<path style="clip-path:url(#SVGID_2_);fill:#231F20;" d="M60.4,55c0-0.1,0-0.3-0.1-0.4c-0.2-0.3-0.5-0.3-0.7-0.3
		c-1,0-1.3,1-1.3,1.7c0,0.3,0,0.8,0.3,1.1c0.2,0.3,0.5,0.4,1,0.4c0.4,0,0.6-0.1,0.7-0.1c0-0.9,0-0.9,0-0.9c-0.8,0-0.8,0-0.8,0
		c0-0.7,0-0.7,0-0.7c1.7,0,1.7,0,1.7,0c0,2.1,0,2.1,0,2.1c-0.3,0.1-0.7,0.2-1.6,0.2c-1,0-1.5-0.2-1.8-0.6c-0.5-0.5-0.6-1.1-0.6-1.6
		c0-1.5,1-2.3,2.3-2.3c0.5,0,1.1,0.2,1.4,0.5c0.3,0.3,0.3,0.7,0.3,0.9H60.4z"/>
	<polygon style="clip-path:url(#SVGID_2_);fill:#231F20;" points="62.1,53.7 64.9,53.7 64.9,54.4 63,54.4 63,55.4 64.8,55.4 
		64.8,56.1 63,56.1 63,57.3 65,57.3 65,58 62.1,58 	"/>
	<polygon style="clip-path:url(#SVGID_2_);fill:#231F20;" points="65.5,53.7 67,53.7 67.9,56.8 68.9,53.7 70.3,53.7 70.3,58 
		69.4,58 69.4,54.4 68.2,58 67.5,58 66.3,54.4 66.3,58 65.5,58 	"/>
	<polygon style="clip-path:url(#SVGID_2_);fill:#231F20;" points="71,53.7 73.9,53.7 73.9,54.4 72,54.4 72,55.4 73.8,55.4 
		73.8,56.1 72,56.1 72,57.3 74,57.3 74,58 71,58 	"/>
	<polygon style="clip-path:url(#SVGID_2_);fill:#231F20;" points="74.5,53.7 75.8,53.7 77.4,57.1 77.4,53.7 78.3,53.7 78.3,58 
		77,58 75.4,54.5 75.4,58 74.5,58 	"/>
	<polygon style="clip-path:url(#SVGID_2_);fill:#231F20;" points="79.9,54.4 78.7,54.4 78.7,53.7 82.1,53.7 82.1,54.4 80.8,54.4 
		80.8,58 79.9,58 	"/>
</g>
</svg>
